<svg width="32" height="32" viewBox="0 0 32 32" fill="none" xmlns="http://www.w3.org/2000/svg">
<path d="M18.4392 12.4998C18.7516 12.1874 19.2581 12.1874 19.5706 12.4998C19.883 12.8122 19.883 13.3188 19.5706 13.6312L17.1666 16.0351L19.5357 18.4042C19.8481 18.7166 19.8481 19.2231 19.5357 19.5356C19.2232 19.848 18.7167 19.848 18.4043 19.5356L16.0352 17.1665L13.6309 19.5709C13.3185 19.8833 12.8119 19.8833 12.4995 19.5709C12.1871 19.2585 12.1871 18.7519 12.4995 18.4395L14.9039 16.0351L12.4646 13.5959C12.1522 13.2834 12.1522 12.7769 12.4646 12.4645C12.777 12.1521 13.2835 12.1521 13.596 12.4645L16.0352 14.9038L18.4392 12.4998Z" fill="#1D1F26" fill-opacity="0.8"/>
<path fill-rule="evenodd" clip-rule="evenodd" d="M7.5 16C7.5 11.3056 11.3056 7.5 16 7.5C20.6944 7.5 24.5 11.3056 24.5 16C24.5 20.6944 20.6944 24.5 16 24.5C11.3056 24.5 7.5 20.6944 7.5 16ZM16 9C12.134 9 9 12.134 9 16C9 19.866 12.134 23 16 23C19.866 23 23 19.866 23 16C23 12.134 19.866 9 16 9Z" fill="#1D1F26" fill-opacity="0.8"/>
</svg>
