<svg width="181" height="135" viewBox="0 0 181 135" fill="none" xmlns="http://www.w3.org/2000/svg">
<g clip-path="url(#clip0_11301_132900)">
<circle cx="90.875" cy="84.375" r="84.375" fill="#A5AEBD" fill-opacity="0.2"/>
<path d="M120.507 33.4477C120.488 33.4301 120.468 33.4124 120.449 33.3943C119.911 32.9009 119.36 32.4202 118.796 31.955C118.765 31.9298 118.734 31.9041 118.703 31.8787L118.685 31.8637C118.092 31.3783 117.487 30.9086 116.866 30.4573L121.26 33.6487L121.275 33.6601C121.288 33.6691 121.3 33.6782 121.312 33.6876C121.327 33.6976 121.341 33.7085 121.356 33.7191L121.365 33.7259L121.418 33.7642L121.47 33.8031C121.722 33.9884 121.971 34.1763 122.218 34.3677C122.465 34.5583 122.71 34.7523 122.953 34.949C122.972 34.964 122.99 34.9793 123.008 34.9947C123.035 35.017 123.062 35.0401 123.09 35.0618L123.202 35.1558L123.273 35.2141C123.407 35.3242 123.541 35.4346 123.673 35.5465C123.91 35.7492 124.146 35.954 124.378 36.1607C124.489 36.259 124.599 36.3593 124.708 36.4596C124.753 36.5011 124.798 36.5429 124.844 36.5843C124.854 36.5942 124.865 36.6037 124.877 36.6132C124.891 36.6258 124.906 36.6384 124.92 36.6521C124.932 36.6624 124.943 36.6732 124.954 36.6841L124.97 36.7005C124.994 36.7226 125.018 36.7446 125.043 36.7667C125.068 36.7894 125.094 36.8122 125.119 36.8354C125.362 37.0636 125.603 37.2946 125.841 37.5275C126.078 37.7618 126.314 37.9981 126.546 38.2378C126.556 38.2479 126.566 38.2586 126.575 38.2691L126.583 38.2771L126.592 38.2874C126.605 38.2996 126.617 38.3126 126.629 38.3255C126.636 38.3333 126.643 38.341 126.65 38.3485C126.847 38.5526 127.042 38.7574 127.234 38.9655C127.488 39.2394 127.737 39.5166 127.983 39.7979C127.998 39.8158 128.014 39.8338 128.029 39.8519L128.054 39.8818C128.084 39.9166 128.113 39.9518 128.143 39.9858C128.154 39.9979 128.164 40.0097 128.175 40.0214L128.189 40.0366C128.195 40.0433 128.201 40.0501 128.207 40.057C128.224 40.0763 128.239 40.0959 128.255 40.1155C128.268 40.1322 128.281 40.1488 128.295 40.1651L128.399 40.2863C128.503 40.4074 128.607 40.5285 128.709 40.6518C128.948 40.9391 129.182 41.2305 129.413 41.5245C129.452 41.5744 129.491 41.6252 129.529 41.676C129.562 41.7194 129.595 41.7631 129.628 41.8058C129.681 41.8748 129.734 41.9442 129.786 42.0139L129.875 42.1289C129.949 42.2245 130.023 42.32 130.095 42.4173C130.366 42.7832 130.632 43.1544 130.892 43.5297C130.916 43.5647 130.94 43.6006 130.964 43.6365C130.985 43.6681 131.006 43.6996 131.027 43.7304C131.039 43.7472 131.051 43.7635 131.063 43.7798C131.075 43.796 131.087 43.8123 131.098 43.8291C131.119 43.8601 131.139 43.8923 131.159 43.9245C131.176 43.9522 131.194 43.98 131.212 44.007C131.25 44.064 131.289 44.1208 131.327 44.1776C131.438 44.3403 131.548 44.5033 131.655 44.6689C131.904 45.0529 132.146 45.4409 132.383 45.8343C132.385 45.8356 132.385 45.837 132.386 45.839C132.387 45.8408 132.388 45.8428 132.389 45.8449L132.393 45.8524C132.627 46.2398 132.855 46.6305 133.076 47.0259L133.102 47.0726L133.102 47.0736C133.135 47.1327 133.168 47.1916 133.201 47.2514C133.243 47.3266 133.283 47.4011 133.325 47.4777L133.36 47.541C133.389 47.5949 133.418 47.6496 133.447 47.7039C133.475 47.7544 133.501 47.805 133.528 47.8556L133.569 47.9315L129.226 44.8186C128.85 44.1077 128.455 43.4095 128.044 42.7241L128.036 42.7114C127.659 42.0837 127.262 41.4708 126.855 40.8659L126.786 40.7618C126.747 40.704 126.709 40.6462 126.67 40.5887C126.267 40.0013 125.851 39.424 125.421 38.8594C125.369 38.7896 125.316 38.7204 125.262 38.6513C124.829 38.0881 124.381 37.5369 123.921 36.9972L123.872 36.9395C123.838 36.8992 123.803 36.8588 123.769 36.8193C123.283 36.2561 122.782 35.7049 122.266 35.1692L122.21 35.1088C121.68 34.5603 121.135 34.028 120.576 33.5111C120.553 33.4896 120.53 33.4687 120.507 33.4477Z" fill="#A5AEBD"/>
<path d="M91.4227 121.463L91.4238 121.464C91.9476 121.443 92.4701 121.411 92.9927 121.37C93.1141 121.361 93.2355 121.349 93.3566 121.337L93.3602 121.337L93.5072 121.323C93.858 121.292 94.2088 121.26 94.5582 121.22C94.6983 121.204 94.8381 121.186 94.978 121.168C95.0395 121.16 95.101 121.152 95.1626 121.144C95.4821 121.103 95.8016 121.062 96.1191 121.014C96.3315 120.982 96.5425 120.947 96.7535 120.913C96.8246 120.901 96.8959 120.89 96.9672 120.879C97.0659 120.864 97.1654 120.849 97.2634 120.831C97.3408 120.818 97.418 120.802 97.4953 120.787C97.556 120.775 97.6172 120.763 97.6781 120.751C97.7282 120.742 97.7785 120.734 97.8288 120.725C97.8872 120.715 97.9461 120.705 98.0042 120.694C98.0657 120.682 98.1267 120.669 98.1876 120.656C98.2303 120.646 98.273 120.637 98.3157 120.628C98.6239 120.566 98.9308 120.5 99.2376 120.432L99.3256 120.412C99.5038 120.373 99.6832 120.333 99.8607 120.29C100.178 120.214 100.495 120.134 100.81 120.051L100.903 120.027L100.904 120.027C101.066 119.986 101.227 119.944 101.388 119.9C101.742 119.804 102.093 119.699 102.443 119.593C102.489 119.58 102.535 119.567 102.581 119.553C102.688 119.522 102.796 119.491 102.903 119.458C102.915 119.454 102.928 119.45 102.941 119.447C102.954 119.443 102.967 119.44 102.979 119.436C103.455 119.286 103.928 119.13 104.4 118.965C104.402 118.964 104.404 118.963 104.407 118.963L104.416 118.96C104.449 118.948 104.481 118.936 104.514 118.924C104.543 118.912 104.573 118.901 104.603 118.891C105.031 118.739 105.459 118.582 105.883 118.417C105.99 118.376 106.096 118.333 106.201 118.29L106.203 118.29L106.207 118.288L106.208 118.288C106.269 118.263 106.329 118.239 106.389 118.215C106.711 118.086 107.034 117.956 107.353 117.82C107.475 117.768 107.597 117.714 107.719 117.661C107.787 117.63 107.856 117.6 107.925 117.57C107.998 117.538 108.071 117.506 108.143 117.475L108.145 117.474C108.265 117.422 108.385 117.37 108.505 117.316C108.539 117.3 108.573 117.283 108.608 117.267C108.624 117.259 108.64 117.251 108.656 117.243C108.707 117.219 108.757 117.195 108.808 117.171C109.006 117.079 109.203 116.985 109.399 116.89C109.683 116.754 109.967 116.614 110.249 116.472L110.295 116.448C110.323 116.435 110.351 116.421 110.379 116.408L110.38 116.407C110.442 116.377 110.503 116.347 110.564 116.315C110.616 116.289 110.666 116.262 110.717 116.234C110.757 116.213 110.797 116.191 110.837 116.17C111.12 116.022 111.402 115.87 111.683 115.717L111.775 115.666C111.933 115.58 112.09 115.493 112.247 115.405C112.54 115.24 112.83 115.069 113.119 114.898L113.261 114.815C113.385 114.742 113.509 114.67 113.632 114.595C113.642 114.589 113.652 114.583 113.662 114.577C113.676 114.569 113.689 114.561 113.703 114.554C113.727 114.54 113.751 114.526 113.774 114.512C113.993 114.377 114.211 114.242 114.428 114.105C114.526 114.043 114.622 113.98 114.719 113.917C114.773 113.882 114.827 113.847 114.881 113.813L114.916 113.79C114.938 113.776 114.961 113.761 114.984 113.746L115.009 113.73C115.032 113.716 115.054 113.702 115.076 113.687C115.291 113.546 115.505 113.404 115.719 113.26C115.932 113.115 116.144 112.97 116.356 112.821C116.412 112.782 116.468 112.742 116.524 112.704C116.552 112.684 116.581 112.664 116.609 112.644C116.637 112.624 116.665 112.604 116.692 112.585C116.72 112.565 116.749 112.545 116.777 112.525C116.805 112.505 116.833 112.485 116.861 112.465C116.917 112.426 116.973 112.385 117.028 112.345C117.041 112.336 117.055 112.326 117.068 112.316C117.081 112.306 117.094 112.297 117.108 112.287L117.147 112.258C117.155 112.252 117.163 112.246 117.17 112.241C117.176 112.237 117.182 112.233 117.188 112.229C117.242 112.189 117.296 112.149 117.35 112.11L117.374 112.092C117.392 112.079 117.41 112.065 117.429 112.052C117.473 112.019 117.517 111.987 117.56 111.954C117.575 111.943 117.59 111.932 117.605 111.921C117.652 111.886 117.699 111.851 117.746 111.816C117.808 111.77 117.869 111.723 117.931 111.676C117.937 111.672 117.944 111.667 117.95 111.662C117.954 111.659 117.957 111.656 117.961 111.654C117.966 111.65 117.971 111.646 117.976 111.642C117.981 111.638 117.986 111.634 117.992 111.631L118.022 111.608C118.032 111.6 118.042 111.593 118.053 111.585C118.118 111.535 118.183 111.485 118.249 111.435C118.249 111.434 118.251 111.433 118.252 111.432L118.335 111.368C118.37 111.34 118.407 111.313 118.443 111.284C118.444 111.284 118.446 111.282 118.446 111.282C118.447 111.281 118.448 111.28 118.448 111.28C118.448 111.28 118.449 111.279 118.448 111.28C118.472 111.262 118.496 111.243 118.519 111.225C118.533 111.214 118.547 111.203 118.561 111.192C118.587 111.172 118.612 111.152 118.637 111.132C118.64 111.13 118.642 111.129 118.643 111.127C118.645 111.126 118.645 111.125 118.647 111.125C118.655 111.118 118.664 111.112 118.672 111.105C118.68 111.099 118.689 111.092 118.697 111.086C118.741 111.05 118.786 111.015 118.831 110.979C118.832 110.979 118.832 110.978 118.832 110.978C118.833 110.977 118.834 110.977 118.834 110.977C118.835 110.976 118.836 110.976 118.836 110.975C118.836 110.975 118.837 110.975 118.836 110.975C118.838 110.974 118.839 110.973 118.84 110.972C118.841 110.971 118.841 110.971 118.842 110.971C118.842 110.97 118.843 110.97 118.844 110.969C118.86 110.956 118.876 110.943 118.892 110.93C118.901 110.924 118.909 110.917 118.917 110.911C118.925 110.904 118.933 110.898 118.942 110.892L118.99 110.852C118.995 110.848 119 110.844 119.005 110.84C119.016 110.831 119.028 110.822 119.039 110.813C119.059 110.797 119.08 110.781 119.1 110.765C119.145 110.729 119.189 110.693 119.234 110.657C119.299 110.604 119.364 110.552 119.428 110.5C119.493 110.446 119.557 110.394 119.622 110.341C119.686 110.287 119.751 110.234 119.814 110.181C119.826 110.172 119.836 110.163 119.847 110.154C119.858 110.144 119.868 110.136 119.879 110.126C119.89 110.118 119.901 110.109 119.911 110.1C119.92 110.092 119.93 110.084 119.939 110.076L119.944 110.072C119.965 110.054 119.987 110.036 120.008 110.019C120.044 109.988 120.08 109.957 120.116 109.927C120.173 109.879 120.23 109.83 120.288 109.781C120.345 109.732 120.402 109.683 120.459 109.634C120.516 109.585 120.573 109.536 120.63 109.487C120.637 109.48 120.644 109.474 120.651 109.468C120.658 109.462 120.665 109.456 120.672 109.45C120.677 109.445 120.682 109.441 120.687 109.437C120.696 109.429 120.705 109.421 120.715 109.413C120.724 109.405 120.733 109.397 120.743 109.389C120.747 109.385 120.752 109.381 120.757 109.377C120.771 109.364 120.785 109.352 120.799 109.339C120.861 109.285 120.923 109.23 120.985 109.176C121.047 109.121 121.108 109.066 121.169 109.011C121.231 108.957 121.293 108.902 121.354 108.846C121.386 108.817 121.419 108.788 121.451 108.759C121.48 108.733 121.508 108.706 121.537 108.68C121.554 108.666 121.569 108.651 121.584 108.637C121.6 108.623 121.616 108.608 121.632 108.594L121.679 108.55L121.696 108.535C121.697 108.533 121.698 108.532 121.699 108.531C121.7 108.53 121.702 108.529 121.703 108.528C121.707 108.524 121.711 108.521 121.715 108.517L121.717 108.515C121.717 108.515 121.719 108.514 121.72 108.513C121.721 108.512 121.721 108.511 121.722 108.51C121.723 108.509 121.725 108.508 121.726 108.507C121.73 108.503 121.734 108.5 121.738 108.496C121.745 108.489 121.753 108.483 121.76 108.476C121.784 108.453 121.808 108.431 121.833 108.409C121.857 108.386 121.881 108.364 121.905 108.342C121.927 108.322 121.948 108.302 121.97 108.282C121.994 108.26 122.018 108.237 122.041 108.215C122.055 108.202 122.069 108.189 122.083 108.176C122.083 108.176 122.084 108.176 122.084 108.175C122.085 108.174 122.085 108.174 122.086 108.173C122.086 108.173 122.087 108.172 122.089 108.172C122.103 108.158 122.117 108.145 122.132 108.131C122.155 108.109 122.177 108.088 122.2 108.067C122.211 108.057 122.221 108.046 122.232 108.036C122.243 108.026 122.253 108.017 122.264 108.007L122.272 107.999C122.294 107.979 122.315 107.957 122.337 107.937C122.351 107.923 122.365 107.91 122.38 107.896C122.401 107.876 122.422 107.857 122.443 107.837C122.443 107.836 122.444 107.835 122.445 107.835C122.445 107.835 122.446 107.834 122.446 107.834C122.447 107.833 122.448 107.832 122.449 107.831L122.453 107.826C122.455 107.825 122.457 107.823 122.459 107.822C122.46 107.82 122.462 107.819 122.463 107.818C122.465 107.816 122.467 107.814 122.469 107.812C122.47 107.811 122.471 107.81 122.471 107.81C122.473 107.808 122.475 107.807 122.476 107.805C122.478 107.804 122.479 107.802 122.481 107.801L122.491 107.79C122.492 107.79 122.492 107.79 122.492 107.79C122.493 107.789 122.493 107.789 122.493 107.789C122.493 107.788 122.494 107.788 122.495 107.788C122.494 107.788 122.495 107.788 122.495 107.788C122.495 107.788 122.496 107.787 122.496 107.787C122.499 107.783 122.503 107.779 122.507 107.776C122.508 107.774 122.51 107.773 122.512 107.771C122.516 107.767 122.52 107.764 122.523 107.76C122.527 107.756 122.531 107.753 122.535 107.749C122.538 107.746 122.542 107.742 122.546 107.739C122.549 107.735 122.553 107.731 122.557 107.728L122.562 107.723C122.568 107.717 122.574 107.711 122.58 107.706L122.636 107.651C122.651 107.637 122.665 107.623 122.68 107.609C122.691 107.599 122.701 107.589 122.712 107.578C122.722 107.568 122.732 107.559 122.742 107.549C122.765 107.527 122.788 107.504 122.812 107.481C122.828 107.465 122.845 107.449 122.862 107.432L122.863 107.43C122.87 107.424 122.876 107.418 122.883 107.412C122.889 107.405 122.895 107.398 122.903 107.392C122.929 107.367 122.955 107.34 122.981 107.314C123.001 107.294 123.023 107.275 123.043 107.255L123.053 107.244C123.055 107.241 123.058 107.238 123.061 107.236C123.114 107.183 123.167 107.131 123.22 107.078L123.252 107.046C123.254 107.045 123.256 107.043 123.258 107.041C123.261 107.038 123.264 107.035 123.267 107.032L123.311 106.988C123.325 106.974 123.34 106.959 123.355 106.944C123.36 106.939 123.364 106.935 123.369 106.93C123.379 106.92 123.389 106.91 123.399 106.9C123.458 106.841 123.517 106.781 123.576 106.722C123.595 106.702 123.615 106.682 123.634 106.662C123.673 106.623 123.712 106.583 123.751 106.544C123.79 106.504 123.829 106.463 123.868 106.423C123.887 106.403 123.906 106.383 123.925 106.364C123.95 106.339 123.974 106.314 123.998 106.289C124.032 106.254 124.066 106.219 124.1 106.184C124.106 106.177 124.112 106.17 124.118 106.164C124.125 106.157 124.131 106.15 124.137 106.143C124.144 106.137 124.15 106.13 124.156 106.124C124.163 106.117 124.169 106.11 124.175 106.104C124.18 106.099 124.184 106.095 124.188 106.09C124.196 106.081 124.205 106.073 124.213 106.064L124.251 106.024C124.303 105.969 124.355 105.914 124.408 105.858C124.46 105.803 124.512 105.747 124.564 105.692C124.615 105.637 124.667 105.581 124.719 105.525L124.873 105.358C124.883 105.347 124.893 105.336 124.904 105.325C124.914 105.314 124.924 105.303 124.934 105.292C124.944 105.281 124.954 105.271 124.965 105.259C124.97 105.253 124.976 105.246 124.982 105.24C124.986 105.235 124.99 105.231 124.994 105.226C125.013 105.206 125.032 105.185 125.05 105.165C125.089 105.123 125.127 105.08 125.165 105.038C125.223 104.975 125.279 104.912 125.336 104.849C125.392 104.785 125.449 104.722 125.505 104.658C125.561 104.595 125.617 104.531 125.673 104.467L125.677 104.463C125.677 104.462 125.679 104.461 125.679 104.46C125.679 104.46 125.679 104.46 125.679 104.46C125.679 104.46 125.68 104.46 125.68 104.459L125.692 104.445C125.699 104.436 125.707 104.429 125.714 104.42C125.72 104.414 125.725 104.408 125.731 104.402C125.739 104.392 125.747 104.383 125.755 104.374C125.764 104.363 125.774 104.352 125.783 104.341C125.787 104.337 125.791 104.332 125.796 104.327C125.809 104.311 125.823 104.295 125.836 104.281L126.172 103.891L126.338 103.695C126.392 103.631 126.447 103.567 126.501 103.502L126.504 103.499C126.512 103.489 126.519 103.48 126.527 103.47C126.535 103.46 126.543 103.451 126.55 103.441C126.554 103.436 126.559 103.432 126.563 103.427C126.567 103.422 126.57 103.418 126.574 103.413C126.582 103.403 126.59 103.394 126.598 103.384C126.648 103.323 126.698 103.263 126.748 103.202C126.799 103.141 126.849 103.08 126.899 103.019C126.924 102.988 126.948 102.957 126.973 102.927C126.998 102.896 127.023 102.866 127.048 102.835C127.098 102.774 127.147 102.712 127.196 102.65C127.207 102.637 127.219 102.622 127.23 102.608C127.24 102.596 127.249 102.585 127.259 102.573C127.26 102.571 127.262 102.569 127.264 102.567C127.264 102.566 127.265 102.565 127.265 102.565C127.275 102.552 127.287 102.538 127.297 102.525C127.309 102.51 127.32 102.497 127.331 102.482C127.369 102.435 127.407 102.387 127.445 102.338C127.46 102.32 127.475 102.301 127.49 102.282C127.523 102.24 127.557 102.197 127.59 102.154C127.609 102.13 127.628 102.106 127.647 102.081L127.803 101.879C127.855 101.812 127.906 101.744 127.959 101.677C127.971 101.66 127.984 101.644 127.996 101.628L128.032 101.579C128.044 101.563 128.057 101.548 128.069 101.531C128.081 101.515 128.093 101.498 128.105 101.483C128.127 101.455 128.147 101.427 128.169 101.399C128.175 101.391 128.182 101.382 128.188 101.373C128.189 101.372 128.191 101.37 128.192 101.368C128.192 101.368 128.192 101.367 128.193 101.366C128.198 101.36 128.203 101.354 128.207 101.348C128.215 101.337 128.223 101.327 128.231 101.315C128.234 101.313 128.236 101.31 128.238 101.307L128.251 101.289C128.253 101.287 128.254 101.285 128.255 101.284C128.257 101.282 128.259 101.28 128.26 101.278C128.261 101.277 128.261 101.276 128.262 101.275C128.262 101.274 128.263 101.274 128.263 101.273C128.269 101.265 128.276 101.256 128.282 101.247C128.282 101.247 128.283 101.247 128.282 101.247C128.283 101.247 128.284 101.246 128.284 101.246C128.284 101.245 128.285 101.244 128.285 101.244C128.285 101.244 128.285 101.243 128.285 101.244C128.285 101.243 128.286 101.243 128.286 101.242C128.287 101.242 128.288 101.241 128.288 101.24C128.289 101.24 128.29 101.238 128.291 101.237C128.292 101.235 128.294 101.234 128.294 101.232C128.316 101.203 128.337 101.175 128.358 101.147L128.381 101.115C128.386 101.109 128.39 101.103 128.395 101.097L128.406 101.082C128.409 101.078 128.412 101.074 128.416 101.07C128.417 101.068 128.418 101.066 128.42 101.064C128.421 101.062 128.423 101.06 128.424 101.058C128.433 101.047 128.441 101.036 128.449 101.024C128.449 101.024 128.45 101.023 128.45 101.023C128.45 101.022 128.451 101.022 128.451 101.021C128.451 101.021 128.452 101.02 128.453 101.02C128.453 101.019 128.453 101.019 128.454 101.018C128.464 101.003 128.475 100.989 128.486 100.974C128.489 100.97 128.492 100.966 128.495 100.962C128.497 100.959 128.499 100.956 128.501 100.954L128.513 100.938C128.518 100.931 128.524 100.923 128.53 100.915C128.532 100.912 128.535 100.908 128.537 100.905C128.54 100.902 128.542 100.899 128.543 100.896C128.544 100.895 128.545 100.895 128.545 100.893L128.565 100.868C128.569 100.862 128.572 100.858 128.575 100.853C128.58 100.847 128.585 100.839 128.59 100.833C128.598 100.822 128.606 100.812 128.614 100.801C128.623 100.788 128.633 100.775 128.643 100.762C128.675 100.717 128.708 100.672 128.742 100.625C128.794 100.554 128.846 100.482 128.897 100.411C128.897 100.41 128.898 100.409 128.898 100.409C128.898 100.409 128.898 100.409 128.898 100.409C128.907 100.395 128.918 100.381 128.928 100.367C128.933 100.36 128.938 100.353 128.943 100.346C128.979 100.295 129.015 100.245 129.05 100.195C129.101 100.123 129.152 100.051 129.202 99.9789L129.354 99.7614C129.359 99.7548 129.363 99.7481 129.368 99.7413C129.375 99.7315 129.382 99.7216 129.389 99.7117C129.4 99.6956 129.411 99.6788 129.423 99.6627L129.451 99.6231C129.453 99.6197 129.455 99.6164 129.458 99.613C129.463 99.6049 129.468 99.5976 129.473 99.5902C129.479 99.5828 129.484 99.5747 129.489 99.5673C129.489 99.5673 129.489 99.5665 129.489 99.5664C129.513 99.5335 129.537 99.4989 129.559 99.4646C129.582 99.4311 129.606 99.3968 129.628 99.3633C129.63 99.3619 129.63 99.3606 129.631 99.3592C129.632 99.3572 129.634 99.3559 129.635 99.3539L129.643 99.3418C129.649 99.3336 129.654 99.3254 129.66 99.3172C129.673 99.2986 129.686 99.2799 129.698 99.2612C129.722 99.2277 129.744 99.1934 129.767 99.1592C129.767 99.1593 129.767 99.1592 129.767 99.1592L129.768 99.1578C129.768 99.1572 129.769 99.1572 129.769 99.1565C129.772 99.1518 129.775 99.1464 129.779 99.1424C129.779 99.1417 129.78 99.1404 129.781 99.139C129.782 99.1381 129.783 99.1371 129.783 99.136C129.784 99.1347 129.785 99.1334 129.785 99.1323L129.845 99.0437L129.921 98.9316C129.921 98.9312 129.921 98.9307 129.921 98.9302C129.922 98.9293 129.923 98.9282 129.923 98.9269C129.925 98.9256 129.925 98.9242 129.926 98.9229C129.929 98.9202 129.931 98.9162 129.933 98.9128C129.943 98.8972 129.954 98.8814 129.964 98.8656C129.975 98.8502 129.985 98.8348 129.995 98.8195C130.01 98.7972 130.024 98.7753 130.039 98.7534C130.049 98.7379 130.059 98.7224 130.07 98.7067C130.076 98.6977 130.082 98.6881 130.088 98.6787C130.092 98.6734 130.095 98.6682 130.098 98.6631C130.103 98.6567 130.107 98.6504 130.111 98.6441C130.116 98.6359 130.122 98.6275 130.127 98.6188L130.156 98.5758C130.165 98.5604 130.175 98.5463 130.184 98.5315L130.192 98.5201C130.205 98.5006 130.217 98.481 130.23 98.4614C130.251 98.4292 130.272 98.3969 130.293 98.3644C130.296 98.3597 130.299 98.3543 130.303 98.3489C130.305 98.3462 130.307 98.3436 130.309 98.3409C130.31 98.3382 130.312 98.3355 130.314 98.3328C130.319 98.3254 130.323 98.3182 130.328 98.311C130.333 98.3038 130.337 98.2966 130.342 98.2892C130.361 98.259 130.381 98.2281 130.402 98.1972C130.41 98.1838 130.419 98.1704 130.428 98.1569C130.432 98.1495 130.436 98.1422 130.442 98.1354C130.442 98.1346 130.442 98.134 130.442 98.1335C130.442 98.1337 130.443 98.1332 130.442 98.1335C130.442 98.1335 130.443 98.1321 130.444 98.1321C130.447 98.126 130.451 98.1201 130.455 98.1142C130.458 98.1084 130.462 98.1025 130.466 98.0965L130.509 98.0294C130.522 98.0092 130.536 97.9884 130.548 97.9683C130.556 97.9562 130.564 97.9434 130.571 97.932C130.572 97.9307 130.573 97.9287 130.574 97.9273C130.575 97.926 130.576 97.9247 130.577 97.9233C130.579 97.9203 130.58 97.9177 130.582 97.915C130.584 97.9123 130.586 97.9096 130.588 97.9065C130.592 97.8988 130.597 97.8913 130.602 97.8837C130.607 97.8761 130.612 97.8686 130.616 97.8609C130.62 97.8558 130.623 97.8505 130.627 97.8451C130.63 97.8397 130.633 97.8344 130.637 97.8293C130.643 97.8179 130.651 97.8065 130.657 97.7964C130.664 97.785 130.671 97.7743 130.678 97.7635C130.685 97.7521 130.691 97.7421 130.699 97.7306C130.706 97.7186 130.713 97.7078 130.721 97.6957C130.721 97.6958 130.721 97.6955 130.721 97.6957L130.739 97.6675C130.741 97.6644 130.743 97.6612 130.745 97.6579C130.747 97.6556 130.748 97.6532 130.75 97.6508C130.754 97.644 130.758 97.6367 130.763 97.6306C130.764 97.6273 130.767 97.6239 130.769 97.6205C130.77 97.618 130.771 97.6158 130.773 97.6136C130.774 97.6123 130.775 97.6111 130.775 97.6098C130.776 97.6088 130.777 97.6078 130.777 97.6067C130.779 97.6044 130.781 97.6021 130.782 97.5997L130.789 97.589C130.798 97.5739 130.807 97.559 130.817 97.544C130.826 97.5291 130.835 97.5141 130.844 97.499C130.863 97.4695 130.881 97.4393 130.9 97.4098C130.907 97.3983 130.914 97.3863 130.921 97.3755C130.923 97.3728 130.924 97.3702 130.926 97.3681L130.93 97.3601C130.938 97.3473 130.947 97.3332 130.956 97.3198C130.974 97.2896 130.992 97.2601 131.011 97.2298C131.024 97.2077 131.039 97.1849 131.052 97.162C131.054 97.1592 131.056 97.156 131.058 97.1528C131.059 97.1508 131.06 97.1487 131.061 97.1466C131.065 97.1412 131.067 97.1359 131.071 97.1312C131.076 97.1228 131.081 97.1144 131.086 97.1063C131.088 97.1033 131.09 97.1004 131.091 97.0976C131.119 97.0533 131.145 97.009 131.172 96.9647C131.177 96.9574 131.181 96.9494 131.186 96.9414C131.19 96.9354 131.193 96.9298 131.197 96.9237L131.214 96.8949C131.222 96.882 131.23 96.8688 131.238 96.8557C131.242 96.8477 131.247 96.8397 131.252 96.8318C131.258 96.8215 131.264 96.8113 131.27 96.8011C131.285 96.7774 131.299 96.7537 131.314 96.7297L131.331 96.7002C131.337 96.6911 131.342 96.6817 131.348 96.6723C131.353 96.6629 131.359 96.6535 131.364 96.6445C131.375 96.6263 131.386 96.6075 131.398 96.5887C131.4 96.5839 131.403 96.5791 131.406 96.5743C131.413 96.5617 131.421 96.5492 131.428 96.5371C131.43 96.533 131.432 96.5297 131.435 96.5263C131.439 96.5183 131.444 96.5109 131.448 96.5035C131.453 96.4954 131.457 96.4881 131.462 96.4807C131.505 96.4082 131.547 96.3357 131.59 96.2632C131.633 96.1907 131.675 96.1182 131.717 96.045C131.732 96.0192 131.747 95.9936 131.762 95.968C131.778 95.9409 131.793 95.9138 131.809 95.8866L131.844 95.8255L131.897 95.7328C131.904 95.7208 131.911 95.7087 131.918 95.6966C131.935 95.6666 131.952 95.6362 131.969 95.6066L127.583 92.8489C127.559 92.8918 127.534 92.9355 127.51 92.9784C127.498 92.9986 127.486 93.0187 127.475 93.0388C127.469 93.0489 127.464 93.059 127.458 93.0691L127.331 93.2893C127.289 93.3618 127.245 93.4356 127.203 93.5081C127.16 93.5806 127.117 93.6538 127.074 93.7263C127.071 93.7323 127.067 93.7384 127.064 93.7444C127.061 93.7491 127.058 93.7538 127.055 93.7585C127.053 93.7632 127.05 93.7679 127.047 93.7726C127.046 93.7739 127.046 93.7746 127.046 93.7753L127.032 93.7968L127.007 93.8397L126.974 93.8948C126.963 93.9136 126.953 93.9317 126.941 93.9498C126.921 93.9847 126.9 94.0192 126.879 94.0537C126.858 94.0884 126.837 94.123 126.817 94.1579C126.812 94.1643 126.808 94.1714 126.804 94.1784C126.802 94.1803 126.801 94.1822 126.8 94.1841C126.794 94.1947 126.787 94.2054 126.781 94.2161C126.764 94.2433 126.748 94.2708 126.732 94.2982C126.72 94.3175 126.708 94.3364 126.697 94.3553C126.689 94.3674 126.682 94.3795 126.674 94.3916L126.662 94.4117C126.619 94.4828 126.575 94.554 126.531 94.6245C126.486 94.6989 126.44 94.7732 126.393 94.8476C126.386 94.8597 126.379 94.8709 126.371 94.8829C126.364 94.8937 126.357 94.9044 126.35 94.9158C126.349 94.9185 126.347 94.9212 126.345 94.9232C126.344 94.9239 126.344 94.9244 126.344 94.9249C126.344 94.9254 126.344 94.9259 126.343 94.9266C126.341 94.9304 126.338 94.9343 126.336 94.9382C126.332 94.9432 126.329 94.9482 126.326 94.9528C126.325 94.9557 126.323 94.9586 126.321 94.9612C126.321 94.9623 126.32 94.9632 126.32 94.9642C126.319 94.9648 126.319 94.9653 126.318 94.9658C126.317 94.9671 126.317 94.9681 126.316 94.9696L126.308 94.9816L126.304 94.9883C126.276 95.0332 126.247 95.078 126.219 95.1228C126.209 95.1378 126.2 95.1527 126.19 95.1676C126.181 95.1825 126.172 95.1971 126.162 95.2118C126.159 95.2176 126.155 95.2235 126.151 95.2293C126.127 95.2676 126.103 95.3065 126.077 95.3441C126.059 95.373 126.041 95.4025 126.021 95.4314C126.014 95.4435 126.006 95.4556 125.998 95.4677C125.983 95.4921 125.967 95.5164 125.951 95.5402C125.936 95.5643 125.921 95.5878 125.906 95.6113C125.886 95.6423 125.866 95.6733 125.845 95.7042C125.825 95.735 125.805 95.7658 125.785 95.7966C125.775 95.8114 125.766 95.8261 125.756 95.8409C125.746 95.8556 125.737 95.8705 125.727 95.8852C125.722 95.8926 125.717 95.8998 125.713 95.907C125.708 95.9142 125.703 95.9215 125.698 95.9288C125.693 95.9362 125.689 95.9436 125.684 95.951C125.679 95.9584 125.674 95.9658 125.669 95.9732L125.652 95.9995C125.61 96.0628 125.568 96.1269 125.525 96.19C125.477 96.2625 125.429 96.3343 125.38 96.4062L125.238 96.6169C125.238 96.6168 125.238 96.6169 125.238 96.6169C125.238 96.6172 125.237 96.6179 125.237 96.6183C125.235 96.6203 125.234 96.6223 125.233 96.6237C125.193 96.6827 125.153 96.7405 125.112 96.7989C125.104 96.8123 125.095 96.8244 125.086 96.8371C125.084 96.8404 125.082 96.8438 125.079 96.8471C125.072 96.8587 125.064 96.8705 125.055 96.8814C125.054 96.8834 125.053 96.8855 125.051 96.8868C125.051 96.8883 125.05 96.8897 125.049 96.8911C125.047 96.8944 125.045 96.8977 125.043 96.9009L125.037 96.9083C125.032 96.9163 125.026 96.9237 125.021 96.9318C125.021 96.9315 125.021 96.9321 125.021 96.9318C125.02 96.9328 125.019 96.9346 125.018 96.9351C125.008 96.9513 124.996 96.9667 124.986 96.9821L124.953 97.0291C124.902 97.103 124.851 97.1768 124.799 97.25C124.755 97.3131 124.711 97.3762 124.666 97.4386C124.659 97.4494 124.651 97.4601 124.644 97.4702L124.489 97.689C124.466 97.721 124.443 97.7529 124.42 97.7848C124.39 97.8252 124.361 97.8656 124.332 97.9065C124.332 97.9069 124.331 97.9074 124.331 97.9079C124.331 97.9084 124.33 97.9089 124.33 97.9092C124.33 97.9095 124.329 97.9101 124.329 97.9106C124.329 97.9111 124.328 97.9116 124.328 97.9119C124.328 97.9124 124.327 97.9129 124.327 97.9132C124.327 97.9138 124.326 97.9142 124.326 97.9146C124.325 97.9153 124.325 97.9159 124.324 97.9173C124.323 97.9193 124.321 97.9213 124.319 97.9233C124.319 97.9247 124.318 97.9253 124.317 97.9267C124.316 97.9286 124.314 97.9305 124.313 97.9324C124.312 97.9338 124.311 97.9353 124.31 97.9367L124.307 97.9394C124.306 97.9421 124.304 97.9441 124.302 97.9461C124.276 97.9824 124.25 98.0186 124.223 98.0542C124.218 98.0619 124.213 98.0695 124.207 98.077C124.203 98.0827 124.199 98.0883 124.195 98.0938C124.19 98.0998 124.186 98.1057 124.182 98.1115C124.178 98.1174 124.173 98.1233 124.169 98.1294C124.165 98.135 124.161 98.1406 124.156 98.1462C124.15 98.154 124.144 98.1618 124.138 98.1697C124.112 98.2061 124.085 98.2423 124.059 98.2779C124.044 98.2975 124.03 98.3169 124.016 98.3362L123.995 98.365C123.995 98.3649 123.995 98.365 123.995 98.365C123.975 98.3919 123.954 98.4191 123.935 98.4456C123.908 98.4814 123.882 98.5168 123.855 98.5523C123.853 98.5547 123.851 98.5572 123.849 98.5597C123.845 98.5656 123.841 98.5715 123.836 98.5772C123.797 98.6295 123.757 98.6819 123.718 98.7336C123.712 98.7419 123.706 98.7497 123.7 98.7576C123.696 98.7631 123.692 98.7687 123.688 98.7745L123.684 98.7792C123.673 98.7932 123.662 98.8077 123.652 98.8222C123.64 98.8376 123.628 98.8537 123.616 98.8692C123.604 98.8853 123.592 98.9007 123.579 98.9175C123.568 98.933 123.555 98.9491 123.544 98.9645L123.542 98.9665C123.49 99.0343 123.438 99.1028 123.385 99.1713C123.333 99.2391 123.28 99.3069 123.228 99.3747C123.174 99.4425 123.122 99.5096 123.069 99.5774C123.016 99.6452 122.963 99.7117 122.909 99.7795C122.898 99.7929 122.887 99.8077 122.876 99.8218C122.864 99.8352 122.854 99.8486 122.843 99.8627L122.842 99.8641C122.84 99.8661 122.838 99.8688 122.836 99.8708C122.827 99.8829 122.817 99.8949 122.807 99.9064C122.802 99.9134 122.796 99.9205 122.79 99.9275C122.785 99.9345 122.779 99.9416 122.774 99.9486C122.724 100.011 122.674 100.073 122.624 100.135L122.473 100.32L122.451 100.348C122.408 100.4 122.365 100.452 122.323 100.504C122.308 100.522 122.294 100.54 122.279 100.558C122.243 100.601 122.207 100.645 122.171 100.688C122.163 100.698 122.155 100.708 122.147 100.717C122.139 100.727 122.131 100.737 122.123 100.745C122.115 100.756 122.107 100.766 122.099 100.774C122.091 100.784 122.083 100.794 122.076 100.803L121.909 101.002L121.741 101.199C121.685 101.265 121.629 101.33 121.573 101.396L121.403 101.591L121.364 101.636C121.355 101.646 121.346 101.657 121.338 101.667L121.333 101.673L121.321 101.686C121.314 101.694 121.307 101.701 121.301 101.709C121.294 101.717 121.287 101.725 121.28 101.732L121.239 101.779L121.07 101.972C121.012 102.036 120.956 102.1 120.899 102.165L120.728 102.355C120.67 102.418 120.613 102.481 120.556 102.545C120.551 102.551 120.546 102.556 120.541 102.562C120.535 102.568 120.53 102.573 120.525 102.579C120.515 102.589 120.505 102.6 120.495 102.612C120.484 102.622 120.473 102.634 120.464 102.645L120.433 102.678L120.278 102.847L120.12 103.015L120.119 103.017C120.067 103.072 120.016 103.127 119.964 103.182C119.942 103.205 119.921 103.228 119.899 103.251C119.868 103.284 119.837 103.316 119.806 103.349C119.794 103.363 119.78 103.376 119.768 103.389C119.762 103.395 119.756 103.402 119.75 103.408C119.743 103.415 119.736 103.423 119.73 103.429C119.717 103.443 119.704 103.456 119.692 103.47C119.678 103.483 119.666 103.497 119.653 103.51C119.595 103.571 119.537 103.631 119.478 103.692C119.463 103.707 119.449 103.722 119.434 103.737C119.39 103.783 119.347 103.828 119.302 103.872C119.271 103.904 119.24 103.936 119.209 103.968C119.181 103.996 119.153 104.024 119.125 104.052L119.124 104.054C119.065 104.114 119.007 104.173 118.948 104.232C118.933 104.247 118.918 104.262 118.903 104.277C118.891 104.29 118.878 104.302 118.864 104.316L118.859 104.321C118.854 104.326 118.849 104.331 118.844 104.336C118.841 104.339 118.837 104.343 118.834 104.346C118.827 104.353 118.82 104.36 118.812 104.367L118.805 104.375C118.799 104.38 118.793 104.386 118.788 104.392C118.782 104.398 118.776 104.403 118.77 104.409C118.715 104.465 118.659 104.52 118.603 104.575C118.589 104.59 118.574 104.604 118.559 104.618C118.552 104.625 118.545 104.632 118.538 104.638L118.529 104.648C118.496 104.681 118.462 104.714 118.429 104.746C118.418 104.757 118.406 104.769 118.394 104.78C118.38 104.794 118.366 104.808 118.353 104.822C118.342 104.832 118.331 104.842 118.321 104.852C118.299 104.873 118.277 104.894 118.256 104.915C118.243 104.928 118.23 104.94 118.216 104.953C118.204 104.966 118.191 104.978 118.177 104.991C118.152 105.016 118.127 105.04 118.101 105.065C118.082 105.083 118.063 105.102 118.044 105.12C118.038 105.125 118.034 105.13 118.029 105.135C118.026 105.137 118.024 105.139 118.021 105.142C118.019 105.144 118.016 105.146 118.014 105.149C118.012 105.151 118.01 105.153 118.008 105.155C118.005 105.158 118.002 105.16 117.999 105.163C117.994 105.167 117.989 105.172 117.984 105.177L117.805 105.348C117.745 105.404 117.684 105.461 117.624 105.517C117.594 105.545 117.564 105.573 117.534 105.601C117.504 105.629 117.474 105.657 117.444 105.685C117.411 105.716 117.378 105.746 117.345 105.776C117.315 105.803 117.286 105.83 117.256 105.858L117.253 105.862C117.251 105.863 117.25 105.864 117.248 105.866C117.247 105.867 117.245 105.868 117.244 105.87L117.24 105.874C117.229 105.883 117.22 105.891 117.21 105.9L117.167 105.94C117.162 105.944 117.158 105.948 117.154 105.952C117.144 105.961 117.135 105.97 117.126 105.978C117.125 105.979 117.124 105.98 117.122 105.981C117.121 105.982 117.12 105.983 117.119 105.984C117.105 105.996 117.091 106.009 117.077 106.023C117.075 106.024 117.074 106.026 117.072 106.027C117.011 106.082 116.949 106.138 116.887 106.194L116.702 106.362C116.64 106.417 116.578 106.472 116.515 106.527C116.453 106.582 116.392 106.637 116.329 106.692C116.326 106.694 116.324 106.696 116.322 106.697C116.31 106.707 116.298 106.718 116.286 106.728C116.279 106.735 116.272 106.741 116.264 106.748C116.258 106.754 116.251 106.759 116.244 106.765C116.23 106.777 116.216 106.789 116.202 106.801C116.193 106.809 116.184 106.817 116.174 106.826C116.169 106.83 116.165 106.834 116.16 106.838C116.121 106.872 116.081 106.906 116.042 106.94C116.024 106.956 116.006 106.972 115.988 106.987L115.641 107.285L115.466 107.431C115.454 107.44 115.444 107.45 115.433 107.459C115.423 107.468 115.412 107.477 115.4 107.486C115.393 107.493 115.386 107.499 115.378 107.506C115.375 107.509 115.372 107.511 115.369 107.514C115.358 107.522 115.347 107.532 115.337 107.54C115.272 107.593 115.209 107.646 115.145 107.699L115.142 107.702C115.078 107.755 115.012 107.808 114.948 107.861C114.919 107.885 114.89 107.908 114.862 107.931C114.825 107.961 114.788 107.99 114.752 108.02C114.737 108.032 114.722 108.044 114.707 108.056C114.656 108.096 114.606 108.137 114.556 108.178C114.54 108.19 114.522 108.204 114.506 108.217L114.457 108.257C114.449 108.263 114.441 108.27 114.433 108.276C114.424 108.283 114.416 108.289 114.408 108.296C114.392 108.309 114.375 108.321 114.359 108.335C114.359 108.334 114.359 108.335 114.359 108.335C114.358 108.335 114.358 108.336 114.357 108.336C114.357 108.336 114.357 108.336 114.356 108.337C114.356 108.337 114.356 108.337 114.355 108.337L114.353 108.339C114.289 108.39 114.224 108.441 114.16 108.492C114.094 108.543 114.029 108.595 113.963 108.646C113.897 108.698 113.832 108.749 113.765 108.8C113.699 108.851 113.633 108.902 113.567 108.952C113.565 108.954 113.563 108.955 113.562 108.956C113.559 108.958 113.557 108.96 113.554 108.961C113.546 108.967 113.539 108.973 113.531 108.979L113.501 109.002C113.498 109.004 113.495 109.006 113.492 109.009C113.484 109.014 113.477 109.02 113.47 109.025C113.468 109.026 113.466 109.028 113.463 109.03C113.455 109.036 113.447 109.042 113.439 109.048C113.377 109.095 113.315 109.142 113.253 109.189L113.066 109.328C113.025 109.359 112.983 109.39 112.942 109.421C112.92 109.436 112.899 109.452 112.878 109.467C112.83 109.503 112.781 109.539 112.732 109.575L112.69 109.605L112.651 109.634C112.637 109.644 112.623 109.654 112.61 109.664C112.596 109.673 112.583 109.683 112.569 109.693C112.557 109.703 112.543 109.713 112.53 109.722C112.474 109.763 112.418 109.803 112.361 109.844C112.342 109.857 112.324 109.87 112.305 109.884C112.267 109.91 112.229 109.937 112.191 109.965C112.154 109.99 112.116 110.017 112.079 110.043C112.06 110.057 112.041 110.07 112.022 110.083C111.965 110.124 111.909 110.163 111.852 110.203C111.395 110.522 110.934 110.833 110.469 111.137C110.449 111.15 110.429 111.163 110.409 111.176L110.37 111.201C109.953 111.471 109.534 111.734 109.11 111.991C108.985 112.067 108.859 112.141 108.733 112.215L108.59 112.299C108.3 112.471 108.009 112.642 107.715 112.808C107.576 112.887 107.436 112.963 107.296 113.04C107.246 113.068 107.195 113.095 107.145 113.123C106.862 113.278 106.579 113.431 106.294 113.58C106.097 113.683 105.9 113.784 105.702 113.884C105.417 114.028 105.133 114.169 104.847 114.306C104.648 114.402 104.45 114.497 104.25 114.59C103.956 114.727 103.659 114.86 103.363 114.992L103.202 115.062C103.064 115.124 102.925 115.185 102.785 115.245C102.465 115.381 102.142 115.511 101.82 115.641C101.755 115.667 101.69 115.693 101.625 115.72C101.518 115.763 101.411 115.807 101.304 115.848C100.88 116.013 100.452 116.17 100.023 116.322C99.9901 116.334 99.9572 116.346 99.9243 116.358C99.8868 116.373 99.8489 116.387 99.8108 116.4C99.3109 116.575 98.8076 116.74 98.3031 116.898C98.216 116.925 98.1288 116.951 98.0416 116.976C97.9754 116.995 97.9092 117.014 97.8431 117.034C97.4897 117.141 97.1362 117.246 96.7801 117.344C96.6286 117.386 96.477 117.424 96.3254 117.463L96.195 117.497C95.8775 117.58 95.56 117.661 95.2418 117.738C95.0922 117.773 94.9425 117.807 94.7928 117.841L94.6128 117.882C94.3046 117.95 93.9958 118.016 93.6862 118.079C93.4719 118.123 93.2569 118.163 93.0426 118.204C92.7324 118.262 92.4229 118.316 92.1127 118.367C91.8997 118.402 91.6873 118.437 91.4743 118.469C91.1542 118.517 90.8333 118.56 90.5118 118.601L90.3672 118.62C90.2122 118.64 90.0568 118.66 89.9014 118.678C89.5718 118.716 89.2417 118.746 88.9103 118.777L88.8464 118.782C88.7752 118.789 88.704 118.796 88.6327 118.803L88.631 118.803C88.529 118.813 88.4269 118.823 88.3246 118.831C87.806 118.871 87.2862 118.903 86.765 118.925C86.7592 118.925 86.7529 118.925 86.7471 118.926L86.5372 118.934L86.3282 118.942L86.1192 118.948L86.1169 118.948C86.0578 118.949 85.9986 118.95 85.9388 118.952L85.9233 118.952C85.9184 118.953 85.9134 118.953 85.9082 118.953C85.8895 118.953 85.8716 118.954 85.8529 118.954L85.8386 118.954L85.8238 118.954L85.8118 118.955L85.795 118.955C85.7764 118.955 85.7571 118.956 85.7378 118.956L85.7251 118.956L85.7098 118.956L85.6992 118.957L85.6819 118.957C85.604 118.958 85.5268 118.959 85.4489 118.96L85.2146 118.962C85.1414 118.963 85.0681 118.963 84.9956 118.963C84.9903 118.963 84.9849 118.964 84.9796 118.964L84.9129 118.964L84.8636 118.963C84.8247 118.963 84.7857 118.963 84.7466 118.963H84.6568C84.5736 118.962 84.491 118.962 84.4078 118.96C84.3246 118.959 84.2421 118.958 84.1589 118.956L83.9099 118.95L83.6983 118.944C83.6836 118.944 83.6703 118.944 83.6557 118.943C83.637 118.942 83.619 118.942 83.5997 118.942C83.5953 118.941 83.5909 118.941 83.5864 118.941L83.5731 118.94L83.5622 118.94L83.5603 118.94C83.5557 118.94 83.5501 118.94 83.5452 118.94L83.4873 118.938H83.4779L83.4307 118.936C83.3987 118.934 83.3674 118.933 83.3355 118.932C83.3348 118.932 83.3341 118.932 83.3335 118.932L83.3322 118.932C83.3078 118.931 83.2833 118.93 83.259 118.929C83.2336 118.928 83.2082 118.927 83.1831 118.926C83.1028 118.922 83.0226 118.919 82.9429 118.916L82.9361 118.915L82.8516 118.911L82.8203 118.909L82.8163 118.909C82.7745 118.907 82.7316 118.905 82.6905 118.903C82.6079 118.899 82.5254 118.894 82.4435 118.889L82.3996 118.887L82.3787 118.885C82.3712 118.885 82.3636 118.884 82.3557 118.884C82.3417 118.883 82.327 118.882 82.3124 118.881L82.2903 118.879L82.28 118.878L82.2685 118.878L82.118 118.868L82.1048 118.867L82.0781 118.865L82.0388 118.862C81.9623 118.858 81.8851 118.852 81.8085 118.846C81.7313 118.84 81.6541 118.834 81.5769 118.829C81.5194 118.824 81.462 118.819 81.404 118.814L81.3459 118.809C81.3339 118.808 81.3213 118.807 81.3093 118.806C81.2966 118.805 81.2847 118.804 81.272 118.803L81.2596 118.803L81.2474 118.802L81.2354 118.801C81.2234 118.8 81.2108 118.799 81.1988 118.797L80.9499 118.775L80.7954 118.759C80.7635 118.756 80.7322 118.753 80.6996 118.75L80.6469 118.744L80.5232 118.732L80.4513 118.723C80.3776 118.716 80.3045 118.708 80.2309 118.699L80.2297 118.699L80.2279 118.699L80.2252 118.699L80.201 118.696L80.1836 118.694C80.1718 118.693 80.1603 118.691 80.1491 118.691L80.0932 118.685C80.0745 118.682 80.0559 118.68 80.0379 118.678C80.0186 118.675 80.0007 118.673 79.982 118.671C79.9243 118.665 79.8666 118.658 79.8092 118.65L79.8077 118.65L79.7311 118.641L79.4795 118.609L79.2279 118.576L79.1067 118.56L79.1045 118.559L79.0447 118.551L78.9769 118.542L78.9516 118.538L78.9257 118.533L78.9004 118.529C78.8917 118.529 78.8831 118.527 78.8751 118.526L78.8182 118.518L78.6361 118.491C78.5562 118.479 78.477 118.467 78.3978 118.454L78.3106 118.44C78.2601 118.432 78.2095 118.425 78.1588 118.416L77.9205 118.377C77.9066 118.374 77.8913 118.372 77.8766 118.37L77.832 118.362C77.818 118.36 77.8027 118.357 77.7881 118.355C77.7801 118.353 77.7722 118.352 77.7641 118.351L77.7435 118.348L77.6663 118.334C77.6094 118.324 77.5516 118.314 77.4945 118.303L77.457 118.296L77.3701 118.281C77.3286 118.273 77.2872 118.266 77.2456 118.258C77.1624 118.243 77.0798 118.227 76.9966 118.211L76.9196 118.196C76.8623 118.185 76.8052 118.175 76.7477 118.163C76.7311 118.16 76.7137 118.156 76.6978 118.153L76.6472 118.143C76.6305 118.139 76.6139 118.135 76.5973 118.133L76.5467 118.123C76.4868 118.11 76.4269 118.098 76.3668 118.086L76.3656 118.085L76.3634 118.085L76.2904 118.07C76.2053 118.052 76.1199 118.034 76.0341 118.017C75.9864 118.006 75.9387 117.996 75.8909 117.985L75.7779 117.961C75.6927 117.942 75.6075 117.923 75.5223 117.904L75.2633 117.843C75.2184 117.833 75.1737 117.822 75.1291 117.811L75.1278 117.811L75.1267 117.811C75.0861 117.801 75.0456 117.791 75.0051 117.782C74.9185 117.761 74.8327 117.739 74.7475 117.718C74.6616 117.696 74.5764 117.675 74.4912 117.653L74.4642 117.647L74.4513 117.643C74.4379 117.639 74.4246 117.636 74.412 117.633L74.3961 117.629C74.3881 117.627 74.3796 117.625 74.372 117.623L74.3451 117.616L74.3321 117.613C74.3301 117.612 74.3288 117.612 74.3274 117.612C74.2489 117.592 74.171 117.571 74.0938 117.55L74.0199 117.531C73.966 117.516 73.9121 117.502 73.8582 117.487C73.8322 117.48 73.8063 117.473 73.781 117.465C73.7415 117.455 73.7021 117.444 73.6629 117.433L73.6199 117.421L73.5999 117.416C73.5868 117.412 73.5731 117.408 73.56 117.405C73.5274 117.396 73.4946 117.386 73.4618 117.377L73.4138 117.364L73.3636 117.349C73.3483 117.345 73.3317 117.341 73.3163 117.336L73.2698 117.322C73.2626 117.32 73.2554 117.318 73.2482 117.316L73.2224 117.309C73.2175 117.307 73.212 117.305 73.207 117.304C73.2027 117.303 73.1984 117.302 73.194 117.3L73.1752 117.295L73.0759 117.266L72.9349 117.224C72.8544 117.201 72.7745 117.177 72.694 117.153L72.6421 117.137L72.5635 117.113L72.5612 117.112L72.5591 117.112L72.455 117.079C72.3767 117.056 72.2984 117.031 72.2202 117.006L72.2174 117.006L72.2053 117.002C72.1977 116.999 72.1904 116.997 72.1834 116.994L72.1731 116.991C72.1688 116.99 72.1641 116.988 72.1601 116.987L72.158 116.986L72.1555 116.985L72.1544 116.985C72.1537 116.985 72.153 116.985 72.1522 116.985C72.1518 116.984 72.1513 116.984 72.1508 116.984L72.1189 116.974C72.114 116.972 72.109 116.97 72.1038 116.969L72.0869 116.963L72.0823 116.961C72.0346 116.946 71.9875 116.931 71.9405 116.916L71.9395 116.916L71.8533 116.888C71.7767 116.863 71.7008 116.838 71.6256 116.813C71.5687 116.794 71.5118 116.775 71.4552 116.756L71.3986 116.736C71.3557 116.722 71.3129 116.707 71.2703 116.693L71.1723 116.659C71.1637 116.656 71.1537 116.652 71.1444 116.65C71.1357 116.647 71.1264 116.644 71.1171 116.64C71.1147 116.639 71.1123 116.639 71.1098 116.638C71.1072 116.637 71.1045 116.636 71.1018 116.635L71.0898 116.631C71.0811 116.628 71.0718 116.624 71.0618 116.622L70.8302 116.539C70.7788 116.521 70.7277 116.502 70.6768 116.484L70.6743 116.483L70.6727 116.483L70.5986 116.456C70.5213 116.428 70.4448 116.399 70.3676 116.371C70.291 116.342 70.2145 116.314 70.1379 116.285C70.1296 116.282 70.1215 116.279 70.1133 116.276C70.1052 116.273 70.097 116.269 70.0887 116.266L70.0394 116.248C70.0234 116.242 70.0068 116.236 69.9908 116.23L69.9629 116.219C69.9558 116.216 69.9489 116.214 69.9422 116.211C69.867 116.183 69.7925 116.154 69.7179 116.125C69.6598 116.102 69.602 116.079 69.544 116.056L69.4949 116.037C69.4204 116.008 69.3465 115.978 69.2733 115.949C69.2131 115.925 69.1539 115.901 69.0944 115.876L69.0928 115.876L69.0057 115.84L68.9894 115.833C68.9798 115.829 68.9701 115.825 68.9604 115.821C68.9503 115.817 68.9395 115.812 68.929 115.808L68.9152 115.803L68.8977 115.795C68.8921 115.793 68.8866 115.79 68.881 115.788C68.8771 115.786 68.8732 115.785 68.8692 115.783C68.8215 115.764 68.7741 115.744 68.7266 115.724L68.6423 115.688C68.5664 115.657 68.4912 115.625 68.4159 115.592C68.3401 115.56 68.2655 115.528 68.1903 115.495C68.1157 115.463 68.0399 115.429 67.966 115.396L67.9447 115.387L67.9415 115.386C67.9358 115.383 67.9296 115.38 67.9234 115.378C67.9167 115.374 67.9101 115.371 67.9027 115.368C67.8954 115.365 67.8888 115.362 67.8821 115.359C67.8102 115.327 67.7383 115.294 67.6678 115.262L67.6013 115.232L67.6002 115.231C67.5512 115.209 67.5023 115.186 67.4534 115.164C67.3822 115.131 67.3116 115.098 67.2404 115.065L67.2379 115.064C67.1682 115.031 67.0985 114.999 67.0288 114.965C67.0164 114.96 67.0047 114.954 66.9931 114.948C66.9827 114.944 66.9719 114.939 66.9618 114.934L66.9549 114.931C66.9429 114.925 66.9309 114.919 66.9189 114.914L66.8823 114.896C66.8104 114.861 66.7385 114.827 66.6673 114.792C66.6237 114.771 66.5808 114.75 66.5379 114.729L66.4523 114.687L66.3807 114.651L66.3774 114.649C66.3315 114.626 66.2852 114.603 66.2386 114.58C66.1681 114.545 66.0969 114.508 66.0263 114.472C66.011 114.465 65.9957 114.457 65.9804 114.449L65.9351 114.426C65.9241 114.42 65.9126 114.414 65.9014 114.408L65.8905 114.403C65.8752 114.395 65.8599 114.387 65.8446 114.379C65.8423 114.378 65.8396 114.377 65.8368 114.375C65.8349 114.374 65.8325 114.373 65.8306 114.372L65.816 114.364L65.802 114.357C65.7992 114.356 65.7965 114.354 65.7939 114.353L65.7993 114.356L70.5999 116.908C70.6052 116.91 70.6099 116.913 70.6139 116.916L70.6285 116.924L70.6364 116.927L70.6425 116.93C70.6478 116.933 70.6525 116.935 70.6571 116.938L70.7017 116.961C70.717 116.969 70.7323 116.977 70.7477 116.985C70.7623 116.991 70.7776 117 70.7923 117.008L70.8033 117.013C70.8145 117.019 70.8258 117.024 70.8369 117.03C70.908 117.067 70.9779 117.102 71.0491 117.137C71.119 117.173 71.1903 117.208 71.2609 117.243C71.3321 117.279 71.4026 117.314 71.4739 117.349C71.5451 117.383 71.6163 117.417 71.6882 117.452C71.7002 117.457 71.7122 117.463 71.7241 117.469L71.7339 117.474L71.7419 117.477L71.743 117.478C71.7464 117.479 71.7497 117.481 71.7531 117.482C71.7557 117.484 71.7582 117.485 71.7608 117.486L71.7753 117.493C71.7825 117.496 71.7898 117.5 71.7974 117.503C71.8087 117.509 71.8213 117.515 71.8333 117.52L71.8846 117.544C71.9378 117.57 71.9909 117.595 72.0443 117.62C72.084 117.638 72.124 117.657 72.1641 117.675L72.2059 117.695L72.256 117.718C72.3013 117.739 72.3466 117.76 72.3921 117.781L72.4683 117.816C72.5389 117.848 72.6101 117.88 72.6813 117.911C72.6887 117.915 72.6953 117.917 72.702 117.921C72.7093 117.924 72.7166 117.927 72.7226 117.931C72.7299 117.934 72.7372 117.937 72.7439 117.939C72.7506 117.943 72.7579 117.946 72.7645 117.949C72.7652 117.949 72.7659 117.949 72.7659 117.949C72.8397 117.982 72.9143 118.015 72.9882 118.047L73.0914 118.092L73.0957 118.094L73.2025 118.139C73.1728 118.127 73.1431 118.114 73.1134 118.102C73.1463 118.116 73.1791 118.13 73.2125 118.144C73.2831 118.174 73.3543 118.205 73.4255 118.235L73.301 118.182L73.434 118.238C73.4351 118.238 73.4363 118.239 73.4375 118.239C73.4885 118.261 73.5399 118.282 73.5916 118.304L73.5938 118.305L73.5952 118.305L73.6631 118.333C73.6725 118.338 73.6818 118.342 73.6913 118.346L73.7077 118.353C73.7155 118.356 73.7233 118.359 73.731 118.362L73.753 118.371C73.7683 118.378 73.783 118.384 73.7989 118.39C73.8063 118.393 73.8137 118.396 73.8212 118.4L73.8375 118.407L73.8435 118.409L74.0639 118.498C74.1371 118.527 74.211 118.557 74.2842 118.586C74.3579 118.615 74.4316 118.644 74.5054 118.673C74.5423 118.687 74.5799 118.702 74.617 118.716C74.6541 118.73 74.6912 118.745 74.7282 118.759L74.7452 118.765L74.7919 118.783L74.8015 118.787C74.8096 118.79 74.8177 118.793 74.826 118.796L74.8494 118.805L74.8746 118.814L74.9232 118.832C74.983 118.855 75.0433 118.877 75.1033 118.9L75.1515 118.917C75.228 118.946 75.3039 118.974 75.3811 119.002L75.4952 119.043C75.5337 119.057 75.5723 119.071 75.6108 119.085L75.7095 119.12C75.7538 119.136 75.7979 119.151 75.8418 119.167C75.8465 119.169 75.8511 119.17 75.8557 119.172C75.8601 119.173 75.8645 119.175 75.8691 119.176L75.8963 119.186C75.9057 119.189 75.9143 119.192 75.9236 119.195C75.933 119.198 75.9416 119.201 75.9509 119.204C76.0041 119.223 76.058 119.241 76.1116 119.259L76.1759 119.281L76.2138 119.294C76.276 119.315 76.3387 119.337 76.4016 119.357C76.4768 119.383 76.552 119.408 76.6279 119.432C76.6714 119.446 76.7147 119.46 76.7578 119.474L76.854 119.505L76.8661 119.509C76.8738 119.511 76.8811 119.514 76.8881 119.516C76.8981 119.519 76.9081 119.522 76.9168 119.526L76.9211 119.527L76.9234 119.528L76.9327 119.531C76.9368 119.532 76.9409 119.533 76.9451 119.534C76.9483 119.535 76.9515 119.537 76.9547 119.538L76.9867 119.548C76.9873 119.548 76.9887 119.548 76.9893 119.548C77.0679 119.573 77.1471 119.598 77.2263 119.622C77.3048 119.647 77.384 119.671 77.4633 119.696C77.5431 119.72 77.623 119.743 77.7022 119.767L77.9412 119.837L77.9884 119.851C78.0037 119.855 78.0191 119.859 78.035 119.864L78.0816 119.877L78.1025 119.883L78.113 119.886L78.1256 119.89L78.1988 119.91L78.294 119.937L78.3332 119.948L78.3645 119.957L78.366 119.957C78.3666 119.958 78.3674 119.958 78.3679 119.958L78.3931 119.965C78.4025 119.968 78.4105 119.971 78.4198 119.973L78.5136 119.998C78.5449 120.007 78.5762 120.016 78.6081 120.024C78.6168 120.027 78.6248 120.029 78.6328 120.032L78.6408 120.034C78.6561 120.037 78.6714 120.041 78.686 120.046C78.7406 120.061 78.7945 120.075 78.8491 120.09C78.9296 120.111 79.0102 120.132 79.0907 120.153L79.13 120.163L79.1443 120.167L79.1699 120.173L79.2092 120.183L79.2485 120.193C79.3337 120.214 79.4182 120.236 79.5034 120.258L79.7597 120.32C79.8301 120.338 79.901 120.355 79.9712 120.372L80.0153 120.382L80.0953 120.401C80.1544 120.415 80.214 120.429 80.2736 120.443L80.415 120.474C80.4525 120.483 80.4901 120.491 80.5278 120.499C80.6124 120.518 80.6976 120.537 80.7821 120.555C80.8666 120.572 80.9518 120.59 81.037 120.608L81.1209 120.625L81.1235 120.626L81.1252 120.626C81.1805 120.638 81.2359 120.649 81.2907 120.66L81.3412 120.67L81.3577 120.674C81.3686 120.676 81.3796 120.679 81.3912 120.68L81.4411 120.69L81.4597 120.694C81.4653 120.695 81.4709 120.697 81.4765 120.698C81.4814 120.699 81.4862 120.7 81.491 120.701L81.5426 120.711L81.642 120.73C81.6739 120.737 81.7059 120.743 81.738 120.749L81.8205 120.764C81.8755 120.775 81.9305 120.785 81.9856 120.795L82.1201 120.82L82.2332 120.841C82.3157 120.856 82.3983 120.87 82.4808 120.884C82.4955 120.886 82.5101 120.889 82.5247 120.892C82.5317 120.893 82.5391 120.894 82.5464 120.895C82.5537 120.897 82.561 120.898 82.568 120.899L82.5823 120.901L82.5982 120.904L82.6126 120.906C82.6196 120.907 82.6269 120.908 82.6342 120.91C82.6416 120.911 82.6489 120.912 82.6559 120.913C82.6834 120.918 82.7109 120.923 82.7384 120.927L82.836 120.943L82.8935 120.953C82.972 120.966 83.0506 120.978 83.1298 120.99L83.2378 121.008L83.3668 121.027L83.4773 121.044C83.5196 121.05 83.5618 121.057 83.6037 121.063L83.61 121.064L83.6166 121.064L83.629 121.066L83.6543 121.07L83.7049 121.078C83.7465 121.084 83.7882 121.089 83.8298 121.095L83.8695 121.101C83.8978 121.105 83.9262 121.109 83.9545 121.113C84.0086 121.12 84.0626 121.127 84.1167 121.134L84.2041 121.146C84.2873 121.156 84.3706 121.166 84.4538 121.177L84.704 121.207L84.7586 121.213C84.7779 121.215 84.7959 121.217 84.8145 121.22L84.8691 121.226C84.8884 121.229 84.9064 121.231 84.9244 121.233C84.9849 121.239 85.0454 121.246 85.1059 121.253L85.169 121.26L85.172 121.26C85.2406 121.267 85.3087 121.274 85.3773 121.282L85.397 121.284L85.4189 121.286C85.4457 121.289 85.4727 121.291 85.4998 121.294L85.574 121.301C85.604 121.304 85.6346 121.307 85.6652 121.31C85.6659 121.311 85.6665 121.311 85.6672 121.311C85.7497 121.319 85.8329 121.326 85.9148 121.334H85.9162C85.9218 121.334 85.9275 121.334 85.9331 121.335C85.9388 121.335 85.9444 121.336 85.9501 121.336L85.966 121.338L85.9772 121.339L85.9841 121.34C85.996 121.34 86.0067 121.341 86.0187 121.342L86.0354 121.343C86.0411 121.344 86.0469 121.344 86.0526 121.345H86.0566C86.0728 121.347 86.0893 121.348 86.1053 121.349L86.1285 121.351L86.2829 121.364C86.3608 121.37 86.4373 121.376 86.5139 121.381L86.5156 121.381L86.6264 121.39C86.6663 121.393 86.7064 121.396 86.7462 121.399C86.7841 121.401 86.8228 121.404 86.8614 121.405L86.9765 121.413C86.9912 121.415 87.0051 121.415 87.0198 121.417L87.022 121.417C87.0316 121.417 87.0415 121.418 87.0513 121.419L87.0624 121.419L87.0752 121.42L87.084 121.421C87.0912 121.421 87.0983 121.422 87.1056 121.422C87.119 121.423 87.1329 121.424 87.1463 121.425L87.1482 121.425L87.2167 121.429L87.3932 121.439C87.4235 121.44 87.4536 121.442 87.4837 121.443C87.5138 121.445 87.544 121.446 87.5743 121.448C87.5956 121.449 87.6175 121.45 87.6395 121.451L87.641 121.451C87.7224 121.455 87.8037 121.459 87.8844 121.462C87.9583 121.465 88.0329 121.468 88.1074 121.47L88.1134 121.471C88.1188 121.471 88.1243 121.471 88.1301 121.472L88.1866 121.474H88.192C88.2093 121.474 88.2266 121.475 88.2439 121.475L88.3018 121.477C88.3058 121.477 88.3091 121.478 88.3131 121.478C88.326 121.478 88.3377 121.478 88.3504 121.479L88.3537 121.479H88.359L88.379 121.48L88.3874 121.48L88.4163 121.481L88.6027 121.487C88.6852 121.489 88.7684 121.49 88.8509 121.492C88.9323 121.494 89.0144 121.495 89.0958 121.497L89.0974 121.497L89.0992 121.497C89.1821 121.498 89.2643 121.499 89.3471 121.499H89.4374C89.5146 121.5 89.5918 121.5 89.669 121.5C89.7469 121.5 89.8248 121.5 89.902 121.499C89.9206 121.499 89.9393 121.499 89.9579 121.499L90.0186 121.498L90.0449 121.498C90.0744 121.498 90.1037 121.498 90.133 121.497L90.3007 121.495L90.3646 121.494C90.3839 121.493 90.4025 121.493 90.4218 121.493L90.4791 121.492C90.4882 121.492 90.4976 121.492 90.507 121.492C90.5166 121.491 90.5266 121.491 90.5363 121.491L90.5628 121.491L90.564 121.491C90.5731 121.49 90.5824 121.49 90.5916 121.49H90.5956L90.5995 121.49C90.6048 121.49 90.6099 121.49 90.6142 121.489C90.6245 121.489 90.6347 121.489 90.6448 121.489C90.655 121.489 90.6651 121.489 90.6754 121.489C90.7167 121.488 90.758 121.487 90.7993 121.486H90.8013C90.8059 121.486 90.8112 121.485 90.8166 121.485C90.8718 121.484 90.9264 121.483 90.981 121.481C90.9903 121.481 90.9983 121.481 91.0069 121.48H91.0189L91.0643 121.478C91.0938 121.478 91.1234 121.476 91.1534 121.475L91.2153 121.473H91.2206L91.3368 121.469C91.3656 121.468 91.3943 121.467 91.423 121.465C91.4222 121.465 91.4214 121.465 91.4207 121.464L91.4227 121.463Z" fill="#A5AEBD"/>
<path d="M138.874 69.2384C138.873 69.1579 138.872 69.0773 138.87 68.9967L138.87 68.9929C138.869 68.9138 138.868 68.8334 138.866 68.7544L138.864 68.6731C138.863 68.62 138.861 68.5667 138.86 68.5134C138.86 68.4913 138.86 68.4684 138.859 68.4449L138.853 68.2395C138.85 68.1569 138.848 68.075 138.844 67.9925C138.842 67.9099 138.838 67.8273 138.835 67.7454C138.832 67.6629 138.829 67.581 138.825 67.4991L138.813 67.2527C138.812 67.2359 138.811 67.2191 138.81 67.2023L138.809 67.1774L138.808 67.1605L138.807 67.1513C138.807 67.1426 138.806 67.1341 138.806 67.1256C138.805 67.117 138.805 67.1084 138.804 67.0996C138.804 67.0828 138.803 67.0661 138.802 67.0486C138.8 67.0211 138.798 66.9936 138.797 66.9654C138.796 66.9516 138.795 66.9377 138.794 66.9237L138.793 66.9059L138.792 66.8821L138.792 66.8786L138.791 66.857C138.79 66.8506 138.79 66.8441 138.789 66.8378V66.8318L138.787 66.7989L138.786 66.7814L138.784 66.7569L138.782 66.7156C138.781 66.7025 138.78 66.6893 138.779 66.6761L138.777 66.6371V66.6203C138.776 66.6176 138.776 66.6143 138.776 66.6109L138.774 66.5847C138.771 66.5411 138.768 66.4975 138.765 66.4545C138.765 66.4438 138.764 66.4337 138.763 66.4236C138.763 66.4176 138.762 66.4122 138.762 66.4062L138.76 66.382L138.756 66.3229C138.753 66.28 138.749 66.2357 138.747 66.1927L138.746 66.1744C138.744 66.1597 138.744 66.145 138.743 66.1303C138.741 66.1094 138.739 66.0886 138.738 66.0672L138.736 66.0378L138.735 66.0236L138.733 66.0054C138.733 65.9943 138.732 65.9835 138.731 65.9728L138.731 65.9711C138.73 65.962 138.729 65.9522 138.729 65.943L138.709 65.7026C138.703 65.6234 138.695 65.5435 138.689 65.4636L138.667 65.2247C138.659 65.1448 138.652 65.0656 138.644 64.9863L138.643 64.9727C138.641 64.9538 138.639 64.9348 138.637 64.9159C138.635 64.8924 138.633 64.8689 138.63 64.846L138.627 64.8126L138.626 64.8112C138.625 64.7994 138.624 64.7878 138.623 64.7762L138.621 64.7647L138.618 64.7303L138.615 64.7057C138.607 64.6285 138.599 64.5513 138.591 64.4741C138.583 64.4034 138.576 64.3333 138.568 64.2626L138.566 64.2432C138.557 64.1653 138.548 64.0888 138.539 64.0123L138.519 63.8486L138.511 63.7813C138.51 63.7673 138.508 63.7532 138.506 63.7391C138.504 63.725 138.502 63.7109 138.5 63.6961C138.499 63.682 138.497 63.6679 138.495 63.6538C138.494 63.6462 138.493 63.6386 138.492 63.6309L138.492 63.6279L138.49 63.6108C138.48 63.5383 138.471 63.4645 138.461 63.392L138.441 63.2463C138.438 63.2219 138.435 63.1975 138.431 63.1731L138.401 62.9543L138.369 62.7361L138.366 62.7119C138.363 62.6958 138.361 62.6797 138.359 62.6636C138.356 62.6425 138.353 62.6213 138.35 62.6006L138.349 62.5918L138.343 62.5577C138.341 62.5446 138.339 62.5316 138.337 62.5186C138.334 62.4951 138.331 62.471 138.327 62.4468L138.315 62.3734C138.307 62.3208 138.299 62.268 138.291 62.2159C138.279 62.1387 138.267 62.0621 138.254 61.9849C138.248 61.9453 138.241 61.9059 138.235 61.8665L138.235 61.8653C138.229 61.8284 138.222 61.7915 138.217 61.7547L138.206 61.6941C138.197 61.6376 138.187 61.5815 138.177 61.5251L138.166 61.4579C138.161 61.4358 138.157 61.4136 138.153 61.3915L138.142 61.325C138.141 61.3212 138.14 61.3173 138.14 61.3135C138.139 61.3096 138.138 61.3057 138.138 61.3018L138.134 61.2833L138.13 61.2579L138.115 61.1783L138.106 61.1256C138.102 61.1037 138.098 61.0818 138.094 61.0599C138.082 60.9947 138.07 60.9283 138.057 60.8625C138.051 60.8298 138.045 60.7971 138.039 60.7644C138.033 60.7313 138.026 60.6982 138.02 60.6651C138.014 60.6338 138.008 60.6024 138.002 60.5711C137.995 60.5368 137.989 60.5025 137.982 60.4684L137.976 60.4416L137.971 60.4134C137.968 60.3939 137.964 60.3758 137.96 60.3577L137.957 60.3406L137.955 60.3298C137.953 60.3206 137.951 60.3114 137.95 60.302C137.948 60.2948 137.947 60.2877 137.946 60.2805C137.944 60.2695 137.942 60.2583 137.939 60.2469L137.918 60.1429C137.909 60.1012 137.901 60.0595 137.892 60.018C137.877 59.9408 137.861 59.8643 137.844 59.7884C137.828 59.7125 137.811 59.6353 137.795 59.5595L137.745 59.3312L137.729 59.2614L137.713 59.1903L137.71 59.1746L137.704 59.1529L137.697 59.1205C137.692 59.097 137.687 59.0728 137.681 59.05C137.671 59.0043 137.66 58.9588 137.65 58.9132L137.629 58.8224C137.617 58.7717 137.605 58.7209 137.593 58.6698L137.576 58.5955L137.522 58.3699C137.511 58.3257 137.5 58.2816 137.489 58.2378L137.466 58.1444L137.452 58.0893C137.45 58.0824 137.448 58.0755 137.446 58.0687L137.443 58.054L137.438 58.0343C137.433 58.0155 137.428 57.9974 137.423 57.9792L137.418 57.9595L137.415 57.9444C137.413 57.9377 137.411 57.931 137.409 57.9242C137.4 57.8872 137.39 57.8502 137.381 57.813L137.36 57.7302L137.309 57.5375L137.303 57.5154C137.288 57.4588 137.273 57.4018 137.258 57.3448C137.241 57.2811 137.224 57.2166 137.206 57.1522C137.205 57.1484 137.203 57.1447 137.202 57.141C137.201 57.1371 137.2 57.1333 137.199 57.1295L137.196 57.1173C137.194 57.1085 137.192 57.0996 137.189 57.0904L137.172 57.0293C137.17 57.0189 137.167 57.0089 137.164 56.9989L137.163 56.9945L137.156 56.9669C137.15 56.9461 137.144 56.9259 137.138 56.9051L137.076 56.6829C137.055 56.6084 137.033 56.5339 137.011 56.4607C136.99 56.3862 136.969 56.3124 136.946 56.2385C136.925 56.1647 136.903 56.0908 136.881 56.0177L136.861 55.9525L136.85 55.9157L136.841 55.8874C136.835 55.8659 136.828 55.8451 136.822 55.8237L136.811 55.7889L136.802 55.7585L136.784 55.6998C136.774 55.67 136.765 55.6401 136.756 55.6102C136.753 55.6016 136.75 55.5925 136.748 55.5833L136.744 55.5699L136.736 55.5451C136.732 55.535 136.729 55.5242 136.726 55.5148C136.721 55.4974 136.716 55.4806 136.71 55.4625C136.7 55.4299 136.69 55.3973 136.679 55.3646L136.664 55.3155C136.648 55.2671 136.633 55.2175 136.617 55.1685L136.614 55.1581L136.611 55.1488L136.605 55.1322L136.603 55.1255C136.602 55.1235 136.602 55.1214 136.601 55.1194C136.6 55.1161 136.599 55.1127 136.598 55.1094C136.597 55.1082 136.597 55.1068 136.596 55.1055L136.595 55.1027C136.589 55.0812 136.582 55.0597 136.575 55.0375L136.553 54.9724L136.541 54.9361L136.531 54.9066C136.528 54.8939 136.523 54.8798 136.519 54.867L136.513 54.8498C136.51 54.8421 136.508 54.8345 136.505 54.8268L136.502 54.8155L136.497 54.7999L136.492 54.7872L136.488 54.7748C136.485 54.7655 136.482 54.7562 136.479 54.7469L136.442 54.6367L136.409 54.5394C136.386 54.4696 136.362 54.4005 136.338 54.332C136.314 54.2629 136.29 54.1937 136.266 54.1246L136.254 54.0892C136.234 54.0327 136.214 53.975 136.194 53.9191L136.187 53.9001L136.172 53.8585L136.172 53.8574C136.165 53.8372 136.158 53.8164 136.15 53.7963C136.143 53.7762 136.136 53.7553 136.129 53.7345L136.128 53.7325C136.121 53.713 136.114 53.6935 136.107 53.6734C136.081 53.6009 136.054 53.5278 136.027 53.4546C136.001 53.3821 135.974 53.3089 135.947 53.2364C135.92 53.164 135.892 53.0913 135.864 53.0189C135.837 52.9465 135.81 52.8739 135.782 52.8021L135.763 52.7504C135.755 52.7329 135.749 52.7162 135.743 52.6987C135.735 52.6819 135.729 52.6651 135.723 52.6477C135.715 52.6309 135.709 52.6128 135.702 52.596C135.676 52.5295 135.65 52.4638 135.624 52.398C135.598 52.3315 135.572 52.2657 135.546 52.1999C135.52 52.1342 135.493 52.0685 135.466 52.0028L135.386 51.8052C135.38 51.7938 135.375 51.781 135.37 51.7689L135.355 51.7314C135.352 51.7215 135.348 51.712 135.343 51.7023L135.34 51.6938L135.333 51.6759L135.329 51.6668L135.325 51.6568C135.295 51.5856 135.266 51.5149 135.236 51.4443L135.233 51.4387C135.22 51.4073 135.207 51.3761 135.193 51.3449L135.193 51.3428C135.175 51.3025 135.158 51.262 135.141 51.2212L135.047 51.005C135.016 50.9326 134.984 50.8608 134.952 50.789C134.948 50.7802 134.945 50.7714 134.941 50.7628L134.928 50.7338C134.92 50.715 134.912 50.6969 134.903 50.6787C134.895 50.6599 134.887 50.6418 134.879 50.6237L134.855 50.568L134.757 50.3511L134.688 50.1999L134.658 50.135C134.625 50.0638 134.592 49.9913 134.559 49.9202C134.532 49.8619 134.505 49.8045 134.478 49.747L134.458 49.7047C134.453 49.6946 134.449 49.6845 134.444 49.6738C134.441 49.668 134.437 49.6617 134.434 49.6555L134.429 49.6443C134.423 49.6335 134.419 49.6234 134.414 49.6134C134.409 49.6033 134.404 49.5926 134.399 49.5832L134.383 49.5483C134.357 49.4931 134.33 49.438 134.303 49.3838C134.271 49.3173 134.24 49.2515 134.207 49.1851C134.174 49.1186 134.142 49.0528 134.11 48.987C134.076 48.9206 134.044 48.8555 134.011 48.7897C134.006 48.7796 134.001 48.7692 133.996 48.7589L133.991 48.7487L133.986 48.7406C133.981 48.7294 133.976 48.7185 133.97 48.7071C133.963 48.6937 133.956 48.6803 133.95 48.6662L133.938 48.6438L133.929 48.6252C133.911 48.5911 133.893 48.5567 133.876 48.5224L133.84 48.4513L133.75 48.2781L133.714 48.2097C133.696 48.1749 133.678 48.1401 133.659 48.1056L133.568 47.9331L129.225 44.8196L129.317 44.9934C129.346 45.0518 129.377 45.1096 129.408 45.1673L129.437 45.2238C129.457 45.263 129.478 45.3024 129.498 45.3418C129.528 45.3996 129.558 45.458 129.588 45.517C129.595 45.5311 129.601 45.5446 129.609 45.5587L129.614 45.5688C129.619 45.5791 129.624 45.5895 129.629 45.5996L129.65 45.6412C129.657 45.6547 129.663 45.6688 129.671 45.6822C129.687 45.7154 129.704 45.7485 129.72 45.7815C129.736 45.8146 129.752 45.8477 129.769 45.8809C129.802 45.9473 129.835 46.0137 129.868 46.0801C129.9 46.1473 129.932 46.2132 129.964 46.2803C129.997 46.3468 130.029 46.4139 130.061 46.481C130.066 46.4911 130.07 46.5019 130.075 46.5119L130.091 46.5421C130.095 46.5529 130.1 46.5629 130.105 46.573C130.11 46.5838 130.115 46.5938 130.12 46.6039C130.154 46.6764 130.187 46.7482 130.221 46.8201C130.255 46.8926 130.288 46.9644 130.321 47.0376C130.354 47.1094 130.388 47.1826 130.42 47.2551C130.441 47.3006 130.461 47.3464 130.482 47.3922L130.518 47.4732C130.525 47.4871 130.531 47.5015 130.537 47.5155L130.543 47.5283C130.551 47.5471 130.559 47.5659 130.567 47.584L130.578 47.607C130.583 47.618 130.587 47.629 130.593 47.6397C130.6 47.6585 130.609 47.6766 130.616 47.6954C130.636 47.739 130.655 47.7825 130.674 47.826L130.689 47.8621L130.712 47.9129C130.744 47.9854 130.775 48.0579 130.806 48.1318C130.837 48.2043 130.869 48.2768 130.899 48.35L130.991 48.5695C130.997 48.5816 131.002 48.5943 131.007 48.6071L131.022 48.644L131.026 48.6541C131.03 48.6637 131.033 48.6728 131.037 48.6823L131.133 48.9172L131.213 49.1166L131.292 49.316C131.318 49.3824 131.344 49.4489 131.371 49.5154C131.375 49.5288 131.381 49.5423 131.386 49.5554L131.391 49.5671C131.398 49.5852 131.404 49.602 131.411 49.6187C131.418 49.6369 131.425 49.6537 131.431 49.6711L131.439 49.6908C131.443 49.7014 131.447 49.712 131.451 49.7228C131.479 49.7953 131.507 49.8685 131.534 49.9416L131.616 50.1605C131.63 50.1971 131.643 50.2339 131.657 50.2706L131.681 50.3373L131.697 50.3807L131.777 50.6009L131.784 50.6195L131.799 50.6626C131.807 50.6828 131.814 50.7036 131.821 50.7244L131.826 50.7389C131.832 50.7544 131.838 50.7704 131.843 50.7861L131.865 50.8472C131.889 50.9169 131.913 50.986 131.937 51.055C131.962 51.1248 131.986 51.1943 132.009 51.2641C132.034 51.3333 132.058 51.4031 132.081 51.4722L132.151 51.6817L132.164 51.722L132.173 51.7474L132.177 51.7622C132.182 51.7757 132.187 51.7891 132.191 51.8025L132.195 51.8147L132.198 51.8251L132.204 51.8428L132.226 51.9096C132.241 51.9542 132.255 51.9987 132.269 52.0435L132.271 52.0486L132.274 52.0579L132.276 52.0638L132.279 52.0724C132.299 52.1375 132.321 52.2033 132.341 52.2691L132.342 52.2737L132.344 52.2778C132.364 52.3396 132.383 52.4013 132.402 52.4631L132.404 52.4712L132.408 52.4828L132.41 52.4899L132.417 52.5107L132.426 52.5412C132.443 52.5942 132.459 52.6477 132.476 52.7001L132.483 52.7275L132.488 52.7413C132.49 52.7496 132.493 52.7578 132.496 52.7658L132.515 52.831C132.522 52.8524 132.529 52.8739 132.536 52.8961L132.621 53.1841C132.641 53.2503 132.66 53.3177 132.679 53.3846L132.686 53.4076C132.708 53.4815 132.73 53.5566 132.751 53.6312C132.761 53.6684 132.772 53.7058 132.782 53.7432L132.806 53.8285L132.814 53.8554C132.819 53.8762 132.825 53.8963 132.831 53.9178C132.836 53.9386 132.842 53.9588 132.848 53.9802C132.85 53.991 132.853 54.0016 132.856 54.0122L132.865 54.042C132.868 54.0563 132.872 54.07 132.875 54.0837L132.881 54.1044C132.899 54.1689 132.916 54.2333 132.934 54.2984C132.95 54.3563 132.965 54.4147 132.98 54.4727L132.985 54.4924L133.035 54.6871C133.047 54.7303 133.058 54.7735 133.069 54.8165L133.086 54.8818L133.092 54.907L133.1 54.9369C133.102 54.9463 133.105 54.9555 133.107 54.9647C133.11 54.9739 133.112 54.9832 133.115 54.9926C133.119 55.0114 133.123 55.0295 133.129 55.0476L133.143 55.1027L133.162 55.1841L133.198 55.3302L133.253 55.5585C133.271 55.6343 133.288 55.7109 133.306 55.7867C133.324 55.8633 133.341 55.9391 133.359 56.0156L133.364 56.0391L133.367 56.0543C133.369 56.0608 133.37 56.0673 133.372 56.0738C133.373 56.0779 133.374 56.082 133.375 56.0861L133.391 56.1573L133.396 56.1827C133.4 56.1976 133.403 56.2131 133.407 56.2285L133.423 56.2996L133.473 56.5292C133.489 56.6064 133.506 56.6829 133.522 56.7595L133.543 56.8608C133.552 56.9039 133.562 56.9471 133.571 56.9904C133.576 57.0141 133.58 57.0379 133.585 57.0617C133.59 57.0841 133.594 57.1065 133.599 57.129L133.618 57.222L133.621 57.2393C133.623 57.2517 133.626 57.2642 133.628 57.277C133.63 57.2864 133.632 57.2956 133.634 57.3048L133.636 57.316L133.639 57.3328C133.643 57.3516 133.646 57.3697 133.65 57.3885L133.655 57.413C133.657 57.4233 133.659 57.4338 133.66 57.4442C133.674 57.51 133.686 57.5764 133.699 57.6429C133.712 57.7087 133.724 57.7751 133.736 57.8409C133.746 57.8919 133.755 57.9433 133.765 57.9941L133.773 58.0403C133.785 58.1068 133.797 58.1739 133.809 58.2397C133.811 58.2559 133.814 58.2722 133.817 58.2882L133.821 58.3075L133.833 58.374L133.84 58.4155L133.843 58.4321L133.845 58.4411L133.857 58.5089L133.874 58.6134L133.875 58.6147C133.882 58.6564 133.889 58.6981 133.895 58.7398C133.909 58.8177 133.921 58.8949 133.933 58.9721C133.942 59.0197 133.949 59.0673 133.956 59.115L133.957 59.1163C133.961 59.1454 133.966 59.1751 133.971 59.2044L134.007 59.4366L134.011 59.4667L134.014 59.4905L134.017 59.5098L134.022 59.5436L134.024 59.556L134.028 59.583L134.031 59.606L134.033 59.6172C134.035 59.6301 134.036 59.643 134.039 59.6562C134.04 59.6683 134.042 59.6804 134.044 59.6925C134.046 59.7046 134.048 59.7166 134.049 59.7287L134.081 59.9482C134.091 60.022 134.101 60.0952 134.112 60.1684C134.12 60.234 134.129 60.299 134.138 60.3645L134.138 60.3656L134.141 60.3892C134.146 60.4284 134.151 60.4674 134.156 60.5064L134.17 60.6094L134.175 60.653C134.176 60.6671 134.178 60.6819 134.18 60.6953L134.181 60.7001C134.183 60.713 134.184 60.7259 134.186 60.739L134.192 60.7813C134.199 60.8515 134.208 60.9212 134.216 60.9913L134.219 61.0142C134.228 61.0914 134.237 61.1686 134.246 61.2465C134.255 61.3244 134.263 61.4016 134.271 61.4794C134.279 61.5497 134.286 61.6199 134.293 61.6897L134.295 61.7124C134.298 61.7359 134.301 61.7594 134.303 61.7835L134.311 61.854C134.312 61.8775 134.315 61.901 134.317 61.9238C134.318 61.9365 134.32 61.9489 134.321 61.9612L134.324 61.995C134.332 62.0749 134.339 62.1554 134.347 62.2353C134.355 62.3152 134.362 62.3964 134.369 62.4763C134.376 62.5569 134.383 62.6368 134.389 62.7173L134.391 62.7335C134.397 62.8086 134.403 62.8832 134.409 62.959C134.411 62.9798 134.412 63.0006 134.413 63.0214C134.415 63.0429 134.417 63.0637 134.418 63.0845C134.42 63.1041 134.421 63.1244 134.422 63.1441L134.423 63.1476C134.423 63.1612 134.424 63.1747 134.425 63.1884L134.427 63.2107C134.431 63.2732 134.436 63.3356 134.44 63.398C134.441 63.4128 134.442 63.4276 134.443 63.4417L134.455 63.631C134.456 63.6397 134.457 63.6484 134.457 63.6572C134.461 63.7229 134.465 63.7887 134.469 63.8545L134.469 63.8574L134.47 63.8599L134.47 63.8612C134.474 63.9319 134.478 64.0026 134.481 64.0734L134.482 64.084L134.483 64.1003L134.485 64.1251C134.485 64.1418 134.486 64.1593 134.487 64.1761L134.489 64.1995L134.489 64.2016C134.489 64.2102 134.49 64.2187 134.49 64.2271C134.491 64.233 134.491 64.2389 134.491 64.2447L134.492 64.2648L134.493 64.2788L134.505 64.5265L134.515 64.7756C134.518 64.8581 134.522 64.9407 134.524 65.0239L134.532 65.2723C134.533 65.2952 134.533 65.3186 134.534 65.3415L134.54 65.5489C134.542 65.6295 134.544 65.7107 134.545 65.7919C134.547 65.8725 134.548 65.9537 134.55 66.0356C134.551 66.1168 134.552 66.1981 134.553 66.2786L134.555 66.523L138.876 69.4801C138.876 69.3995 138.875 69.319 138.874 69.2384Z" fill="#A5AEBD"/>
<path d="M138.858 71.082C138.872 70.5463 138.878 70.0126 138.874 69.4803L134.554 66.5225C134.556 67.0669 134.55 67.6127 134.534 68.1598C134.531 68.2551 134.527 68.3507 134.522 68.4464C134.518 68.5325 134.514 68.6191 134.511 68.7049L134.503 68.8984C134.492 69.201 134.48 69.5034 134.462 69.8072C134.453 69.9455 134.442 70.084 134.43 70.2225C134.423 70.3052 134.417 70.3879 134.41 70.4704L134.4 70.614C134.38 70.8968 134.359 71.1807 134.333 71.4647C134.318 71.6276 134.299 71.7909 134.281 71.954C134.272 72.0273 134.264 72.101 134.256 72.1742L134.241 72.3127C134.213 72.5873 134.184 72.8624 134.149 73.1376C134.137 73.2318 134.123 73.326 134.11 73.4202C134.101 73.4831 134.092 73.546 134.084 73.6088C134.033 73.9814 133.98 74.3546 133.921 74.7286C133.899 74.8695 133.875 75.0105 133.851 75.1514L133.822 75.3206C133.765 75.657 133.706 75.994 133.641 76.331C133.604 76.53 133.564 76.7291 133.524 76.9287L133.518 76.96C133.451 77.2909 133.38 77.6219 133.306 77.9535C133.26 78.161 133.214 78.3684 133.165 78.5758C133.051 79.0645 132.932 79.5533 132.802 80.0433C132.66 80.5804 132.509 81.1127 132.352 81.6424C132.345 81.6633 132.339 81.684 132.333 81.7047C132.325 81.7325 132.317 81.76 132.309 81.7874C132.158 82.2909 131.998 82.7903 131.832 83.2877C131.821 83.3223 131.809 83.3574 131.798 83.3924C131.792 83.4099 131.786 83.4273 131.781 83.4447C131.775 83.4623 131.769 83.4798 131.763 83.4972C131.599 83.9839 131.428 84.4659 131.251 84.9445C131.213 85.0479 131.174 85.15 131.136 85.252C130.973 85.683 130.807 86.1119 130.634 86.5362C130.62 86.5716 130.606 86.6071 130.592 86.6425C130.58 86.6716 130.569 86.7009 130.557 86.7295C130.364 87.2008 130.163 87.6667 129.958 88.1299C129.921 88.2131 129.884 88.2968 129.846 88.3797L129.828 88.4219C129.619 88.8838 129.407 89.3423 129.187 89.7961C129.179 89.8119 129.171 89.8276 129.163 89.8432C129.151 89.8665 129.14 89.8898 129.129 89.9136C128.917 90.3459 128.7 90.7742 128.478 91.1991C128.437 91.279 128.396 91.3589 128.354 91.4388C128.104 91.9127 127.847 92.3837 127.583 92.8489L131.969 95.6066C132.027 95.5046 132.085 95.4029 132.142 95.2995C132.199 95.1974 132.256 95.0954 132.312 94.992C132.369 94.8893 132.425 94.7866 132.481 94.6825C132.537 94.5798 132.592 94.4765 132.647 94.3724C132.663 94.3434 132.678 94.3142 132.693 94.2851C132.706 94.2598 132.719 94.2341 132.732 94.2093L132.733 94.2078C132.775 94.1277 132.817 94.0477 132.858 93.9676C132.886 93.9134 132.914 93.8593 132.943 93.8052C133.004 93.6889 133.065 93.5718 133.124 93.4547C133.252 93.2043 133.375 92.9519 133.499 92.6988L133.511 92.675C133.523 92.6523 133.534 92.6297 133.546 92.6069L133.56 92.576C133.564 92.5684 133.567 92.5608 133.571 92.5532L133.585 92.525C133.736 92.2141 133.883 91.9006 134.028 91.5845C134.066 91.5025 134.103 91.42 134.139 91.3375C134.153 91.3072 134.166 91.2769 134.18 91.2466C134.184 91.2357 134.189 91.2248 134.194 91.2139C134.238 91.1179 134.281 91.0206 134.324 90.9239L134.36 90.8431C134.392 90.7731 134.424 90.7034 134.455 90.6325C134.601 90.2969 134.744 89.9592 134.884 89.6195C134.896 89.592 134.906 89.5638 134.918 89.5356C134.92 89.5312 134.922 89.5266 134.924 89.5221C134.929 89.5096 134.935 89.4969 134.94 89.4846C134.951 89.4563 134.962 89.4278 134.973 89.3992C134.981 89.3796 134.988 89.3599 134.996 89.3403L134.997 89.339C135.097 89.0917 135.197 88.8444 135.294 88.5951C135.344 88.4656 135.393 88.3349 135.441 88.2048L135.491 88.0695L135.528 87.9731C135.555 87.9035 135.581 87.8341 135.607 87.7647C135.613 87.746 135.62 87.7274 135.627 87.7088C135.634 87.69 135.641 87.6712 135.649 87.6525C135.66 87.6211 135.672 87.5899 135.684 87.5586C135.81 87.2109 135.933 86.8618 136.053 86.51C136.074 86.4508 136.093 86.3902 136.113 86.3297L136.114 86.3281L136.126 86.294C136.131 86.2784 136.137 86.2628 136.142 86.2469C136.148 86.2289 136.154 86.2108 136.159 86.1927L136.163 86.1814C136.17 86.16 136.176 86.1386 136.183 86.1173L136.23 85.9778C136.27 85.8586 136.31 85.7394 136.348 85.6192C136.445 85.3211 136.538 85.0217 136.628 84.7203C136.638 84.6901 136.646 84.6606 136.655 84.6304C136.662 84.6078 136.668 84.5853 136.675 84.5629C136.682 84.5383 136.689 84.5132 136.697 84.4887C136.763 84.2645 136.83 84.0396 136.895 83.8141C136.98 83.5106 137.064 83.2058 137.144 82.8997C137.17 82.8037 137.195 82.7077 137.219 82.6124C137.244 82.5164 137.268 82.4218 137.292 82.3258C137.317 82.2298 137.341 82.1344 137.364 82.0384C137.388 81.9431 137.411 81.8478 137.434 81.7525C137.447 81.6962 137.46 81.6401 137.472 81.5842C137.482 81.5373 137.493 81.4905 137.504 81.4437C137.54 81.288 137.575 81.1327 137.609 80.9777L137.643 80.8274C137.653 80.7811 137.664 80.7348 137.674 80.6886C137.68 80.6639 137.686 80.6392 137.691 80.6145C137.716 80.5078 137.741 80.401 137.763 80.2951C137.782 80.2019 137.8 80.1095 137.818 80.0169C137.824 79.9841 137.83 79.9514 137.837 79.9185C137.842 79.8917 137.847 79.8648 137.852 79.8379C137.858 79.812 137.863 79.7862 137.869 79.7603C137.874 79.735 137.88 79.7098 137.885 79.6845C137.899 79.6249 137.912 79.5652 137.924 79.5056C137.933 79.4573 137.941 79.4093 137.949 79.3614C137.957 79.3133 137.966 79.2653 137.975 79.2169C137.986 79.1589 137.998 79.1007 138.009 79.0424C138.023 78.9751 138.037 78.9079 138.049 78.841C138.075 78.6933 138.099 78.5462 138.123 78.3988C138.133 78.3366 138.143 78.2744 138.153 78.212L138.179 78.0592C138.204 77.9143 138.229 77.7696 138.252 77.6246C138.254 77.6086 138.257 77.5927 138.26 77.5768C138.263 77.5544 138.267 77.5321 138.271 77.5097C138.278 77.4701 138.285 77.4302 138.291 77.3903C138.322 77.1862 138.349 76.9824 138.377 76.779C138.388 76.6909 138.4 76.6023 138.412 76.5142C138.42 76.4574 138.428 76.4008 138.437 76.3442C138.448 76.2731 138.459 76.2019 138.467 76.1309C138.469 76.1168 138.471 76.1027 138.472 76.0885C138.474 76.0745 138.475 76.0604 138.477 76.0463C138.481 76.0121 138.487 75.9785 138.491 75.945C138.515 75.7499 138.535 75.5554 138.555 75.3609C138.564 75.2703 138.574 75.1797 138.583 75.0891C138.592 75.0022 138.602 74.9154 138.612 74.8286C138.629 74.6812 138.645 74.5339 138.659 74.3869C138.661 74.3627 138.665 74.3392 138.667 74.315C138.686 74.0997 138.701 73.8847 138.716 73.6697C138.722 73.5771 138.729 73.4846 138.736 73.392C138.742 73.3075 138.749 73.2227 138.756 73.1379C138.766 73.0207 138.776 72.9033 138.783 72.7865C138.784 72.7788 138.784 72.7713 138.784 72.7638L138.785 72.7408C138.786 72.7254 138.788 72.7099 138.788 72.6938C138.804 72.4308 138.814 72.1686 138.823 71.9066C138.827 71.8188 138.83 71.731 138.834 71.6432C138.836 71.5695 138.84 71.4957 138.843 71.422C138.848 71.3165 138.853 71.211 138.856 71.1055L138.856 71.1038C138.857 71.0964 138.858 71.0895 138.858 71.082Z" fill="#A5AEBD"/>
<path fill-rule="evenodd" clip-rule="evenodd" d="M101.125 23.3694C102.074 23.5628 103.009 23.7869 103.928 24.0398C104.847 24.2937 105.749 24.5763 106.636 24.8865C107.523 25.1977 108.394 25.5366 109.246 25.9021C110.1 26.2686 110.937 26.6617 111.755 27.0803C113.7 28.0768 115.546 29.2177 117.28 30.4915C119.017 31.7653 120.644 33.1719 122.152 34.6942C123.661 36.2187 125.053 37.8601 126.317 39.6013C127.582 41.3457 128.72 43.1911 129.721 45.1246C130.548 46.7213 131.283 48.3797 131.919 50.0869C132.556 51.7962 133.095 53.5555 133.53 55.3573C133.966 57.1601 134.298 59.0044 134.522 60.8827C134.746 62.7599 134.861 64.6721 134.863 66.6078C134.865 67.7031 134.829 68.8069 134.757 69.9149C134.685 71.024 134.575 72.1395 134.427 73.2603C134.281 74.3811 134.094 75.5051 133.87 76.6333C133.646 77.7615 133.381 78.893 133.078 80.0254C132.775 81.1579 132.437 82.2734 132.065 83.3708C131.693 84.4693 131.288 85.5476 130.852 86.6079C130.415 87.6671 129.947 88.7092 129.447 89.7291C128.949 90.75 128.42 91.7497 127.863 92.7292C126.876 94.4609 125.802 96.1256 124.647 97.717C123.491 99.3085 122.255 100.828 120.947 102.268C119.639 103.708 118.26 105.069 116.82 106.345C115.378 107.621 113.875 108.812 112.318 109.912C110.434 111.243 108.473 112.443 106.449 113.497C104.426 114.552 102.34 115.465 100.208 116.225C98.0764 116.984 95.8987 117.591 93.6893 118.035C91.482 118.478 89.244 118.759 86.9911 118.869C86.0417 118.914 85.0914 118.928 84.1378 118.913C83.1853 118.896 82.2317 118.849 81.2771 118.77C80.3236 118.69 79.3679 118.579 78.4154 118.434C77.4618 118.291 76.5093 118.113 75.5589 117.902C74.6892 117.711 73.8321 117.492 72.9889 117.249C72.1467 117.006 71.3162 116.74 70.5026 116.448C69.688 116.158 68.8872 115.843 68.1023 115.506C67.3174 115.169 66.5473 114.808 65.7921 114.427C63.869 113.455 62.0457 112.342 60.3285 111.101C58.6133 109.862 57.0032 108.496 55.5087 107.016C54.0152 105.539 52.6353 103.95 51.3783 102.263C50.1214 100.577 48.9865 98.7922 47.9799 96.9256C47.1006 95.2949 46.321 93.6014 45.6442 91.8538C44.9696 90.1063 44.3969 88.3055 43.9333 86.4613C43.4709 84.6159 43.1156 82.7281 42.8748 80.8042C42.634 78.8834 42.5078 76.9265 42.5004 74.9441C42.4961 73.818 42.5301 72.6845 42.6032 71.5446C42.6764 70.4047 42.7889 69.2584 42.9416 68.1068C43.0943 66.9562 43.2884 65.8004 43.5218 64.6424C43.7562 63.4844 44.032 62.3222 44.3491 61.1589C44.6663 59.9966 45.0206 58.8503 45.4098 57.7264C45.7991 56.6013 46.2223 55.4954 46.6805 54.4107C47.1377 53.326 47.6277 52.2615 48.1496 51.2194C48.6715 50.1772 49.2251 49.1562 49.8085 48.1587C50.8353 46.4026 51.9543 44.7166 53.1561 43.1082C54.3578 41.4987 55.6423 39.9678 57 38.5198C58.3598 37.0708 59.7907 35.7056 61.2863 34.4308C62.7829 33.1549 64.3421 31.9682 65.9575 30.8772C67.8063 29.6299 69.7251 28.507 71.7033 27.519C73.6815 26.5321 75.718 25.679 77.798 24.9704C79.8781 24.2629 82.0026 23.6987 84.1558 23.2897C86.3112 22.8807 88.4962 22.6268 90.6961 22.5365C91.5595 22.5014 92.426 22.4919 93.2926 22.5068C94.1613 22.5238 95.0311 22.5652 95.9009 22.6342C96.7717 22.7022 97.6425 22.7978 98.5123 22.92C99.3831 23.0422 100.255 23.192 101.125 23.3694" fill="#D0D5DD"/>
<g filter="url(#filter0_di_11301_132900)">
<path fill-rule="evenodd" clip-rule="evenodd" d="M99.0298 30.4137C99.837 30.5779 100.632 30.7683 101.414 30.9831C102.195 31.1987 102.962 31.4388 103.717 31.7023C104.471 31.9667 105.211 32.2545 105.936 32.5649C106.662 32.8763 107.374 33.2102 108.07 33.5657C109.724 34.4121 111.293 35.3813 112.768 36.4633C114.245 37.5452 115.628 38.74 116.911 40.0331C118.195 41.328 119.378 42.7222 120.453 44.2013C121.528 45.683 122.496 47.2504 123.348 48.8928C124.051 50.2491 124.676 51.6577 125.217 53.1078C125.759 54.5598 126.217 56.0541 126.587 57.5846C126.958 59.1159 127.24 60.6825 127.43 62.2779C127.621 63.8724 127.719 65.4967 127.721 67.1409C127.722 68.0713 127.692 69.0088 127.63 69.95C127.569 70.8921 127.475 71.8396 127.35 72.7917C127.225 73.7437 127.067 74.6984 126.876 75.6567C126.685 76.6151 126.461 77.5761 126.203 78.5381C125.945 79.5 125.658 80.4475 125.341 81.3797C125.025 82.3128 124.68 83.2287 124.309 84.1293C123.938 85.029 123.54 85.9142 123.115 86.7805C122.691 87.6477 122.241 88.4968 121.767 89.3288C120.929 90.7997 120.015 92.2138 119.033 93.5656C118.049 94.9173 116.999 96.2077 115.886 97.4314C114.774 98.6541 113.602 99.8101 112.377 100.894C111.151 101.979 109.873 102.99 108.549 103.924C106.947 105.055 105.279 106.074 103.558 106.97C101.837 107.866 100.063 108.641 98.2504 109.286C96.4374 109.931 94.5856 110.447 92.7067 110.824C90.8296 111.2 88.9264 111.439 87.0106 111.532C86.2033 111.571 85.3951 111.583 84.5842 111.57C83.7742 111.556 82.9633 111.515 82.1515 111.448C81.3406 111.381 80.5279 111.286 79.7179 111.163C78.907 111.041 78.097 110.891 77.2888 110.711C76.5491 110.549 75.8203 110.363 75.1032 110.156C74.387 109.95 73.6808 109.724 72.9889 109.476C72.2962 109.229 71.6152 108.962 70.9477 108.676C70.2802 108.389 69.6254 108.083 68.9832 107.759C67.3478 106.934 65.7973 105.988 64.3369 104.934C62.8784 103.882 61.5092 102.721 60.2382 101.464C58.9682 100.21 57.7947 98.8599 56.7258 97.4269C55.657 95.9948 54.6918 94.4788 53.8358 92.8933C53.0881 91.5081 52.4251 90.0697 51.8496 88.5853C51.2759 87.1008 50.7889 85.5713 50.3947 84.0047C50.0014 82.4373 49.6992 80.8337 49.4945 79.1995C49.2897 77.568 49.1824 75.9058 49.1761 74.2219C49.1725 73.2654 49.2013 72.3026 49.2636 71.3343C49.3258 70.366 49.4214 69.3924 49.5513 68.4142C49.6812 67.4369 49.8463 66.4551 50.0447 65.4715C50.2441 64.4879 50.4786 63.5007 50.7483 62.5125C51.018 61.5253 51.3192 60.5516 51.6503 59.5969C51.9813 58.6413 52.3412 57.7019 52.7309 56.7806C53.1196 55.8592 53.5364 54.955 53.9801 54.0698C54.4239 53.1845 54.8948 52.3173 55.3909 51.47C56.264 49.9784 57.2156 48.5463 58.2376 47.18C59.2596 45.8129 60.3519 44.5126 61.5065 43.2826C62.6628 42.0518 63.8796 40.8922 65.1514 39.8093C66.4242 38.7256 67.7501 37.7176 69.1239 36.7908C70.6961 35.7314 72.3278 34.7776 74.01 33.9384C75.6922 33.1001 77.4241 32.3754 79.1929 31.7736C80.9617 31.1726 82.7685 30.6934 84.5995 30.346C86.4324 29.9986 88.2905 29.7829 90.1613 29.7062C90.8955 29.6764 91.6324 29.6683 92.3694 29.6809C93.1081 29.6954 93.8477 29.7305 94.5874 29.7892C95.3279 29.847 96.0685 29.9282 96.8081 30.0319C97.5487 30.1357 98.2901 30.263 99.0298 30.4137" fill="#D0D5DD"/>
</g>
<path fill-rule="evenodd" clip-rule="evenodd" d="M49.2334 76.2121C49.2852 77.2178 49.3733 78.2143 49.497 79.1995C49.6822 80.6781 49.9472 82.1316 50.2873 83.556L102.533 31.3107C102.164 31.1959 101.791 31.0867 101.416 30.9831C100.634 30.7683 99.8395 30.5779 99.0322 30.4136C98.2926 30.2629 97.5511 30.1357 96.8106 30.0319C96.3962 29.9738 95.9815 29.9227 95.5666 29.8789L49.2334 76.2121ZM105.446 32.3586L51.1602 86.6448C51.3745 87.2995 51.6053 87.9466 51.8521 88.5853C52.4276 90.0697 53.0906 91.5081 53.8383 92.8933C54.5737 94.2554 55.3897 95.5662 56.2827 96.8166L114.923 38.1762C114.23 37.578 113.512 37.0064 112.771 36.4633C111.296 35.3813 109.726 34.4121 108.072 33.5657C107.377 33.2102 106.665 32.8763 105.939 32.5649C105.775 32.495 105.611 32.4262 105.446 32.3586Z" fill="#E5E7EB" fill-opacity="0.4"/>
<path fill-rule="evenodd" clip-rule="evenodd" d="M124.956 97.0296C124.967 97.0142 124.978 96.9981 124.989 96.9833L125.022 96.9356C125.033 96.9202 125.043 96.9041 125.054 96.8886C125.065 96.8732 125.076 96.8571 125.087 96.8416C125.076 96.8571 125.065 96.8732 125.054 96.8886C125.043 96.9041 125.033 96.9202 125.022 96.9356C125.011 96.9517 124.999 96.9672 124.989 96.9826L124.956 97.0296Z" fill="#7A7A7A"/>
<g filter="url(#filter1_di_11301_132900)">
<path d="M103.022 86.5081L100.902 94.9847L93.8889 93.2325L100.305 67.5778L85.6279 83.4234L84.8089 83.2187L79.3039 62.3905L72.9015 87.9887L65.8374 86.2237L75.7308 46.6679L82.9996 48.4841L88.6104 69.7591L103.526 53.6128L110.795 55.429L108.675 63.9067L116.185 65.7832L114.065 74.2594L106.555 72.3829L105.142 78.0319L112.652 79.9084L110.532 88.3846L103.022 86.5081Z" fill="#F6F7F8"/>
<path d="M66.0971 53.2657L73.6104 55.1456L71.491 63.6193L63.9771 61.7419L66.0971 53.2657Z" fill="#F6F7F8"/>
<path d="M62.5635 67.3935L70.0773 69.2708L67.9573 77.7471L60.4435 75.8697L62.5635 67.3935Z" fill="#F6F7F8"/>
</g>
<path fill-rule="evenodd" clip-rule="evenodd" d="M79.27 46.4309L82.1446 32.2607L74.1607 62.0354L78.627 48.7302L85.9979 49.9437L79.27 46.4309ZM77.4988 46.1212L82.0996 32.4136L74.1156 62.1882L76.9052 48.4337L69.9153 45.7993L77.4988 46.1212Z" fill="white"/>
<rect x="5.5625" y="133.312" width="141.188" height="1.6875" rx="0.84375" fill="#A5AEBD"/>
<rect x="149" y="133.312" width="26.4375" height="1.6875" rx="0.84375" fill="#A5AEBD"/>
<path d="M15.0713 114.75C16.7281 114.75 18.0713 113.407 18.0713 111.75C18.0713 110.093 16.7281 108.75 15.0713 108.75C13.4144 108.75 12.0713 110.093 12.0713 111.75C12.0713 113.407 13.4144 114.75 15.0713 114.75Z" stroke="#A5AEBD" stroke-opacity="0.4" stroke-width="1.47154" stroke-miterlimit="10"/>
<path d="M156.17 18.8082C154.077 19.1797 152.424 21.2887 152.131 23.9493C152.123 24.0169 152.048 24.0169 152.04 23.9493C151.747 21.2887 150.09 19.1834 148.001 18.8082C147.949 18.7969 147.949 18.6993 148.001 18.6918C150.094 18.3203 151.747 16.2113 152.04 13.5507C152.048 13.4831 152.123 13.4831 152.131 13.5507C152.424 16.2113 154.081 18.3166 156.17 18.6918C156.226 18.6993 156.226 18.7969 156.17 18.8082Z" fill="#A5AEBD" fill-opacity="0.6"/>
<path d="M165.475 103.432C166.414 103.432 167.175 102.671 167.175 101.732C167.175 100.794 166.414 100.033 165.475 100.033C164.536 100.033 163.775 100.794 163.775 101.732C163.775 102.671 164.536 103.432 165.475 103.432Z" stroke="white" stroke-width="1.47154" stroke-miterlimit="10"/>
<path d="M20.75 26.25C22.1997 26.25 23.375 25.0747 23.375 23.625C23.375 22.1753 22.1997 21 20.75 21C19.3003 21 18.125 22.1753 18.125 23.625C18.125 25.0747 19.3003 26.25 20.75 26.25Z" stroke="#A5AEBD" stroke-opacity="0.2" stroke-width="2" stroke-miterlimit="10"/>
</g>
<defs>
<filter id="filter0_di_11301_132900" x="49.1758" y="29.6752" width="78.5449" height="84.6357" filterUnits="userSpaceOnUse" color-interpolation-filters="sRGB">
<feFlood flood-opacity="0" result="BackgroundImageFix"/>
<feColorMatrix in="SourceAlpha" type="matrix" values="0 0 0 0 0 0 0 0 0 0 0 0 0 0 0 0 0 0 127 0" result="hardAlpha"/>
<feOffset dy="2.73599"/>
<feColorMatrix type="matrix" values="0 0 0 0 1 0 0 0 0 1 0 0 0 0 1 0 0 0 0.5 0"/>
<feBlend mode="normal" in2="BackgroundImageFix" result="effect1_dropShadow_11301_132900"/>
<feBlend mode="normal" in="SourceGraphic" in2="effect1_dropShadow_11301_132900" result="shape"/>
<feColorMatrix in="SourceAlpha" type="matrix" values="0 0 0 0 0 0 0 0 0 0 0 0 0 0 0 0 0 0 127 0" result="hardAlpha"/>
<feOffset dy="2.73599"/>
<feComposite in2="hardAlpha" operator="arithmetic" k2="-1" k3="1"/>
<feColorMatrix type="matrix" values="0 0 0 0 0.647059 0 0 0 0 0.682353 0 0 0 0 0.741176 0 0 0 0.459135 0"/>
<feBlend mode="normal" in2="shape" result="effect2_innerShadow_11301_132900"/>
</filter>
<filter id="filter1_di_11301_132900" x="58.8209" y="45.0456" width="62.2318" height="54.8064" filterUnits="userSpaceOnUse" color-interpolation-filters="sRGB">
<feFlood flood-opacity="0" result="BackgroundImageFix"/>
<feColorMatrix in="SourceAlpha" type="matrix" values="0 0 0 0 0 0 0 0 0 0 0 0 0 0 0 0 0 0 127 0" result="hardAlpha"/>
<feOffset dx="1.62241" dy="1.62241"/>
<feGaussianBlur stdDeviation="1.62241"/>
<feComposite in2="hardAlpha" operator="out"/>
<feColorMatrix type="matrix" values="0 0 0 0 0.647059 0 0 0 0 0.682353 0 0 0 0 0.741176 0 0 0 0.5 0"/>
<feBlend mode="normal" in2="BackgroundImageFix" result="effect1_dropShadow_11301_132900"/>
<feBlend mode="normal" in="SourceGraphic" in2="effect1_dropShadow_11301_132900" result="shape"/>
<feColorMatrix in="SourceAlpha" type="matrix" values="0 0 0 0 0 0 0 0 0 0 0 0 0 0 0 0 0 0 127 0" result="hardAlpha"/>
<feOffset dx="0.811206" dy="2.43362"/>
<feComposite in2="hardAlpha" operator="arithmetic" k2="-1" k3="1"/>
<feColorMatrix type="matrix" values="0 0 0 0 1 0 0 0 0 1 0 0 0 0 1 0 0 0 0.5 0"/>
<feBlend mode="normal" in2="shape" result="effect2_innerShadow_11301_132900"/>
</filter>
<clipPath id="clip0_11301_132900">
<rect width="180" height="135" fill="white" transform="translate(0.5)"/>
</clipPath>
</defs>
</svg>
