<svg width="21" height="20" viewBox="0 0 21 20" fill="none" xmlns="http://www.w3.org/2000/svg">
<path fill-rule="evenodd" clip-rule="evenodd" d="M4.5 1.99976C3.39543 1.99976 2.5 2.89519 2.5 3.99976V6.99976C2.5 8.10433 3.39543 8.99976 4.5 8.99976H7.5C8.60457 8.99976 9.5 8.10433 9.5 6.99976V3.99976C9.5 2.89519 8.60457 1.99976 7.5 1.99976H4.5ZM7.5 3.49976H4.5C4.22386 3.49976 4 3.72361 4 3.99976V6.99976C4 7.2759 4.22386 7.49976 4.5 7.49976H7.5C7.77614 7.49976 8 7.2759 8 6.99976V3.99976C8 3.72361 7.77614 3.49976 7.5 3.49976Z" fill="white" fill-opacity="0.6"/>
<path fill-rule="evenodd" clip-rule="evenodd" d="M4.5 10.9998C3.39543 10.9998 2.5 11.8952 2.5 12.9998V15.9998C2.5 17.1043 3.39543 17.9998 4.5 17.9998H7.5C8.60457 17.9998 9.5 17.1043 9.5 15.9998V12.9998C9.5 11.8952 8.60457 10.9998 7.5 10.9998H4.5ZM7.5 12.4998H4.5C4.22386 12.4998 4 12.7236 4 12.9998V15.9998C4 16.2759 4.22386 16.4998 4.5 16.4998H7.5C7.77614 16.4998 8 16.2759 8 15.9998V12.9998C8 12.7236 7.77614 12.4998 7.5 12.4998Z" fill="white" fill-opacity="0.6"/>
<path fill-rule="evenodd" clip-rule="evenodd" d="M11.5 3.99976C11.5 2.89519 12.3954 1.99976 13.5 1.99976H16.5C17.6046 1.99976 18.5 2.89519 18.5 3.99976V6.99976C18.5 8.10433 17.6046 8.99976 16.5 8.99976H13.5C12.3954 8.99976 11.5 8.10433 11.5 6.99976V3.99976ZM13.5 3.49976H16.5C16.7761 3.49976 17 3.72361 17 3.99976V6.99976C17 7.2759 16.7761 7.49976 16.5 7.49976H13.5C13.2239 7.49976 13 7.2759 13 6.99976V3.99976C13 3.72361 13.2239 3.49976 13.5 3.49976Z" fill="white" fill-opacity="0.6"/>
<path d="M16.5 12.4998H15.8C15.6343 12.4998 15.5 12.3654 15.5 12.1998V11.2998C15.5 11.1341 15.6343 10.9998 15.8 10.9998H16.5C17.6046 10.9998 18.5 11.8952 18.5 12.9998V13.6998C18.5 13.8654 18.3657 13.9998 18.2 13.9998H17.3C17.1343 13.9998 17 13.8654 17 13.6998V12.9998C17 12.7236 16.7761 12.4998 16.5 12.4998Z" fill="white" fill-opacity="0.6"/>
<path d="M17.3 14.9998C17.1343 14.9998 17 15.1341 17 15.2998V15.9998C17 16.2759 16.7761 16.4998 16.5 16.4998H15.8C15.6343 16.4998 15.5 16.6341 15.5 16.7998V17.6998C15.5 17.8654 15.6343 17.9998 15.8 17.9998H16.5C17.6046 17.9998 18.5 17.1043 18.5 15.9998V15.2998C18.5 15.1341 18.3657 14.9998 18.2 14.9998H17.3Z" fill="white" fill-opacity="0.6"/>
<path d="M14.2 16.4998C14.3657 16.4998 14.5 16.6341 14.5 16.7998V17.6998C14.5 17.8654 14.3657 17.9998 14.2 17.9998H13.5C12.3954 17.9998 11.5 17.1043 11.5 15.9998V15.2998C11.5 15.1341 11.6343 14.9998 11.8 14.9998H12.7C12.8657 14.9998 13 15.1341 13 15.2998V15.9998C13 16.2759 13.2239 16.4998 13.5 16.4998H14.2Z" fill="white" fill-opacity="0.6"/>
<path d="M13 12.9998V13.6998C13 13.8654 12.8657 13.9998 12.7 13.9998H11.8C11.6343 13.9998 11.5 13.8654 11.5 13.6998V12.9998C11.5 11.8952 12.3954 10.9998 13.5 10.9998H14.2C14.3657 10.9998 14.5 11.1341 14.5 11.2998V12.1998C14.5 12.3654 14.3657 12.4998 14.2 12.4998H13.5C13.2239 12.4998 13 12.7236 13 12.9998Z" fill="white" fill-opacity="0.6"/>
<path d="M14.4 13.4998C14.1791 13.4998 14 13.6788 14 13.8998V15.0998C14 15.3207 14.1791 15.4998 14.4 15.4998H15.6C15.8209 15.4998 16 15.3207 16 15.0998V13.8998C16 13.6788 15.8209 13.4998 15.6 13.4998H14.4Z" fill="white" fill-opacity="0.6"/>
</svg>
