<svg width="100" height="24" viewBox="0 0 100 24" fill="none" xmlns="http://www.w3.org/2000/svg">
<path d="M8.2042 11.331L9.00275 14.1489H5.4093V16.9667H9.80128L11.3983 22.6023H16.6734L20.124 10.797H20.2826L23.7333 22.6023H29.0083L30.6053 16.9667H34.9973V14.1489H31.4039L32.2025 11.3308H36.4055V8.51291H33.001L34.9973 1.46826H28.8497L26.0733 14.5119H25.9147L22.6227 1.46826H17.7839L14.492 14.4706H14.3333L11.5569 1.46826H5.4093L7.40567 8.51309H4V11.331H8.2042Z" fill="#2F7BFF"/>
<path d="M68.99 1.9624V22.6024H63.4268V1.9624H68.99Z" fill="#2F7BFF"/>
<path d="M98.7177 11.1536V7.12232H96.0571V3.41357H90.4939V7.12232H88.5186V11.1536H90.4939V18.1478C90.4804 19.2295 90.6921 20.1298 91.1288 20.8487C91.5655 21.5676 92.2173 22.0951 93.084 22.431C93.9507 22.7602 95.0224 22.8912 96.299 22.824C96.9305 22.7904 97.4748 22.7199 97.9316 22.6124C98.3952 22.5049 98.7513 22.4142 98.9999 22.3403L98.1937 18.43C98.0862 18.4569 97.9182 18.4904 97.6898 18.5308C97.468 18.5711 97.2732 18.5912 97.1052 18.5912C96.8633 18.5912 96.6651 18.5576 96.5106 18.4904C96.3561 18.4165 96.2418 18.309 96.1679 18.1679C96.094 18.0201 96.0571 17.8387 96.0571 17.6237V11.1536H98.7177Z" fill="#2F7BFF"/>
<path fill-rule="evenodd" clip-rule="evenodd" d="M75.1668 21.9378C76.3628 22.5694 77.7872 22.8851 79.44 22.8851C80.8711 22.8851 82.1208 22.6701 83.1891 22.2401C84.2641 21.8034 85.1275 21.192 85.7792 20.4059C86.4309 19.6131 86.8441 18.6792 87.0188 17.6042H81.9394C81.8319 17.8931 81.6639 18.1417 81.4355 18.35C81.207 18.5515 80.9316 18.7061 80.6091 18.8136C80.2933 18.9211 79.9439 18.9748 79.5609 18.9748C79.01 18.9748 78.5397 18.864 78.15 18.6422C77.7603 18.4205 77.4613 18.1148 77.253 17.7251C77.0447 17.3354 76.9406 16.892 76.9406 16.3948V16.1529H87.0188V14.8629C87.0188 13.6334 86.8374 12.5282 86.4746 11.5472C86.1118 10.5663 85.5944 9.73318 84.9225 9.04787C84.2507 8.35584 83.441 7.82842 82.4937 7.4656C81.5463 7.10279 80.4881 6.92139 79.319 6.92139C77.72 6.92139 76.3325 7.25396 75.1567 7.91912C73.9809 8.58428 73.0705 9.51482 72.4255 10.7108C71.7805 11.9067 71.458 13.3042 71.458 14.9033C71.458 16.5695 71.7772 18.0006 72.4154 19.1965C73.0604 20.3858 73.9776 21.2995 75.1668 21.9378ZM76.9406 13.0892H81.8991C81.8924 12.6458 81.7781 12.2561 81.5564 11.9201C81.3414 11.5775 81.0491 11.3121 80.6796 11.124C80.3168 10.9291 79.9036 10.8317 79.44 10.8317C78.9898 10.8317 78.5766 10.9291 78.2004 11.124C77.8241 11.3121 77.5218 11.5741 77.2933 11.9101C77.0716 12.246 76.954 12.639 76.9406 13.0892Z" fill="#2F7BFF"/>
<path d="M60.3943 22.6029V1.96289H54.8311V22.6029H60.3943Z" fill="#2F7BFF"/>
<path fill-rule="evenodd" clip-rule="evenodd" d="M42.1797 22.8448C41.1921 22.8448 40.3186 22.6836 39.5594 22.3611C38.8069 22.0319 38.2156 21.5347 37.7856 20.8695C37.3556 20.2044 37.1406 19.3578 37.1406 18.3298C37.1406 17.4833 37.2851 16.761 37.574 16.163C37.8629 15.5583 38.266 15.0645 38.7834 14.6815C39.3007 14.2986 39.9021 14.0063 40.5874 13.8047C41.2794 13.6032 42.0252 13.4722 42.8248 13.4117C43.6915 13.3445 44.3869 13.2639 44.911 13.1698C45.4417 13.069 45.8247 12.9313 46.0599 12.7566C46.295 12.5752 46.4126 12.3367 46.4126 12.0411V12.0008C46.4126 11.5976 46.2581 11.2886 45.949 11.0736C45.6399 10.8586 45.2435 10.7511 44.7598 10.7511C44.229 10.7511 43.7956 10.8687 43.4597 11.1038C43.1305 11.3322 42.9323 11.685 42.8651 12.162H37.7453C37.8125 11.2214 38.1115 10.3547 38.6423 9.56185C39.1798 8.76232 39.9625 8.12404 40.9905 7.64701C42.0185 7.16326 43.3018 6.92139 44.8404 6.92139C45.949 6.92139 46.9434 7.0524 47.8236 7.31443C48.7037 7.56975 49.4529 7.9292 50.071 8.39279C50.6892 8.84967 51.1595 9.38717 51.482 10.0053C51.8112 10.6167 51.9758 11.2819 51.9758 12.0008V22.6029H46.7754V20.4261H46.6545C46.3454 21.0039 45.9692 21.4708 45.5257 21.8269C45.089 22.183 44.5885 22.4417 44.0241 22.6029C43.4664 22.7642 42.8516 22.8448 42.1797 22.8448ZM43.9938 19.3376C44.4171 19.3376 44.8135 19.2503 45.1831 19.0756C45.5593 18.9009 45.865 18.649 46.1002 18.3197C46.3354 17.9905 46.4529 17.5908 46.4529 17.1204V15.8304C46.3051 15.8909 46.1472 15.948 45.9793 16.0018C45.818 16.0555 45.6433 16.1059 45.4552 16.1529C45.2738 16.2 45.0789 16.2436 44.8706 16.284C44.6691 16.3243 44.4574 16.3612 44.2357 16.3948C43.8057 16.462 43.453 16.5729 43.1775 16.7274C42.9087 16.8752 42.7072 17.06 42.5728 17.2817C42.4451 17.4967 42.3813 17.7386 42.3813 18.0073C42.3813 18.4373 42.5325 18.7665 42.8348 18.995C43.1372 19.2234 43.5235 19.3376 43.9938 19.3376Z" fill="#2F7BFF"/>
</svg>
