<svg width="24" height="24" viewBox="0 0 24 24" fill="none" xmlns="http://www.w3.org/2000/svg">
<circle cx="12" cy="12" r="10" fill="#FFB422"/>
<circle cx="12" cy="12" r="8" fill="url(#paint0_radial_8340_446839)"/>
<path d="M19.9962 12.25C19.9987 12.167 20 12.0836 20 12C20 7.58172 16.4183 4 12 4C7.58172 4 4 7.58172 4 12C4 12.0836 4.00128 12.167 4.00383 12.25C4.13591 7.9474 7.66536 4.5 12 4.5C16.3346 4.5 19.8641 7.9474 19.9962 12.25Z" fill="#FF640D"/>
<path d="M19.9962 12C19.9987 12.083 20 12.1664 20 12.25C20 16.6683 16.4183 20.25 12 20.25C7.58172 20.25 4 16.6683 4 12.25C4 12.1664 4.00128 12.083 4.00383 12C4.13591 16.3026 7.66536 19.75 12 19.75C16.3346 19.75 19.8641 16.3026 19.9962 12Z" fill="#FFF48C"/>
<path d="M8.5 10V7.5H10L11.9998 12.8327L13.9996 7.5H15.4996L15.5 10H17V11.5H15.5V13H17V14.5H15.5V16.5H14V11.499L12.9281 14.5H11.0714L10 11.5V16.5H8.5V14.5H7V13H8.5V11.5H7V10H8.5Z" fill="#E35A0D"/>
<path d="M8.50044 10V7H10.0004L12.0002 12.3327L14 7H15.5L15.5004 10H17.0004V11H15.5004L15.5 13H17L17.0004 14H15.5004V16H14.0004V10.999L12.9286 14H11.0719L10.0004 11V16H8.50044V14H7.00044L7 13H8.5L8.50044 11H7.00044V10H8.50044Z" fill="white"/>
<defs>
<radialGradient id="paint0_radial_8340_446839" cx="0" cy="0" r="1" gradientUnits="userSpaceOnUse" gradientTransform="translate(12 12) rotate(90) scale(8)">
<stop offset="0.703125" stop-color="#FFA927"/>
<stop offset="1" stop-color="#FF6B00"/>
</radialGradient>
</defs>
</svg>
