<svg width="21" height="20" viewBox="0 0 21 20" fill="none" xmlns="http://www.w3.org/2000/svg">
<path fill-rule="evenodd" clip-rule="evenodd" d="M2 7.72338C2 5.92315 3.13421 4.31822 4.83115 3.71722L12.4988 1.00158C13.9632 0.482966 15.5 1.56905 15.5 3.12249V5.00814C17.4545 5.13679 19 6.76288 19 8.74994V14.2499C19 16.321 17.3211 17.9999 15.25 17.9999H5.75C3.67893 17.9999 2 16.321 2 14.2499V7.72338ZM12.9996 2.41552C13.4877 2.24265 14 2.60468 14 3.12249V4.99994H5.75C5.73383 4.99994 5.71768 5.00004 5.70156 5.00025L12.9996 2.41552ZM3.5 8.74994V14.2499C3.5 15.4926 4.50736 16.4999 5.75 16.4999H15.25C16.4926 16.4999 17.5 15.4926 17.5 14.2499V13.9999H15C13.6193 13.9999 12.5 12.8807 12.5 11.4999C12.5 10.1192 13.6193 8.99994 15 8.99994H17.5V8.74994C17.5 7.5073 16.4926 6.49994 15.25 6.49994H5.75C4.50736 6.49994 3.5 7.5073 3.5 8.74994ZM15 10.4999H17.5V12.4999H15C14.4477 12.4999 14 12.0522 14 11.4999C14 10.9477 14.4477 10.4999 15 10.4999Z" fill="white" fill-opacity="0.6"/>
</svg>
