<svg width="25" height="24" viewBox="0 0 25 24" fill="none" xmlns="http://www.w3.org/2000/svg">
<path d="M8.875 3.5H16.375C17.8938 3.5 19.125 4.73122 19.125 6.25V11.25C19.125 11.6642 19.4608 12 19.875 12C20.2892 12 20.625 11.6642 20.625 11.25V6.25C20.625 3.90279 18.7222 2 16.375 2H8.875C6.52779 2 4.625 3.90279 4.625 6.25V17.75C4.625 20.0972 6.52779 22 8.875 22H12.875C13.2892 22 13.625 21.6642 13.625 21.25C13.625 20.8358 13.2892 20.5 12.875 20.5H8.875C7.35622 20.5 6.125 19.2688 6.125 17.75V6.25C6.125 4.73122 7.35622 3.5 8.875 3.5Z" fill="currentColor" fill-opacity="0.8"/>
<path d="M8.375 6C7.96079 6 7.625 6.33579 7.625 6.75C7.625 7.16421 7.96079 7.5 8.375 7.5H15.875C16.2892 7.5 16.625 7.16421 16.625 6.75C16.625 6.33579 16.2892 6 15.875 6H8.375Z" fill="currentColor" fill-opacity="0.8"/>
<path d="M7.625 9.75C7.625 9.33579 7.96079 9 8.375 9H12.875C13.2892 9 13.625 9.33579 13.625 9.75C13.625 10.1642 13.2892 10.5 12.875 10.5H8.375C7.96079 10.5 7.625 10.1642 7.625 9.75Z" fill="currentColor" fill-opacity="0.8"/>
<path d="M21.6553 15.0303C21.9482 14.7374 21.9482 14.2626 21.6553 13.9697C21.3624 13.6768 20.8876 13.6768 20.5947 13.9697L16.625 17.9393L14.6553 15.9697C14.3624 15.6768 13.8876 15.6768 13.5947 15.9697C13.3018 16.2626 13.3018 16.7374 13.5947 17.0303L15.9532 19.3889C16.3242 19.7599 16.9258 19.7599 17.2968 19.3889L21.6553 15.0303Z" fill="currentColor" fill-opacity="0.8"/>
</svg>
