<svg width="25" height="24" viewBox="0 0 25 24" fill="none" xmlns="http://www.w3.org/2000/svg">
<path d="M13.625 2C14.0392 2 14.375 2.33579 14.375 2.75C14.375 3.16421 14.0392 3.5 13.625 3.5H7.625C5.55393 3.5 3.875 5.17893 3.875 7.25V16.75C3.875 18.8211 5.55393 20.5 7.625 20.5H17.125C19.1961 20.5 20.875 18.8211 20.875 16.75V10.75C20.875 10.3358 21.2108 10 21.625 10C22.0392 10 22.375 10.3358 22.375 10.75V16.75C22.375 19.6495 20.0245 22 17.125 22H7.625C4.7255 22 2.375 19.6495 2.375 16.75V7.25C2.375 4.3505 4.72551 2 7.625 2H13.625Z" fill="currentColor"/>
<path d="M17.8744 2.75C17.8744 3.16421 18.2102 3.5 18.6244 3.5H19.7998L17.8657 5.43564C17.5731 5.72845 17.5732 6.20296 17.8659 6.49565C18.1587 6.7885 18.6336 6.78841 18.9263 6.49544L20.8763 4.54395V5.75063C20.8763 6.16449 21.2118 6.5 21.6256 6.5C22.0395 6.5 22.375 6.16449 22.375 5.75063V2.75C22.375 2.33579 22.0395 2 21.6256 2H18.6244C18.2102 2 17.8744 2.33579 17.8744 2.75Z" fill="currentColor"/>
<path d="M8.87544 10L8.875 8H10.375L12.3752 12.3327L14.375 8H15.875L15.8754 10H17.3754V11H15.8754L15.875 13H17.375L17.3754 14H15.8754V16H14.3754V11.5L13.3036 14H11.4469L10.375 11.5L10.3754 16H8.87544V14H7.37544L7.375 13H8.875L8.87544 11H7.37544V10H8.87544Z" fill="currentColor"/>
</svg>
