<svg width="25" height="24" viewBox="0 0 25 24" fill="none" xmlns="http://www.w3.org/2000/svg">
<path fill-rule="evenodd" clip-rule="evenodd" d="M7.375 2C5.30393 2 3.625 3.67893 3.625 5.75V21.75C3.625 22.0321 3.78329 22.2903 4.03467 22.4183C4.28604 22.5463 4.58799 22.5225 4.81613 22.3566L7.10333 20.6931L9.15648 22.3357C9.43039 22.5548 9.81961 22.5548 10.0935 22.3357L12.125 20.7105L14.1565 22.3357C14.4304 22.5548 14.8196 22.5548 15.0935 22.3357L17.1467 20.6931L19.4339 22.3566C19.662 22.5225 19.964 22.5463 20.2153 22.4183C20.4667 22.2903 20.625 22.0321 20.625 21.75V5.75C20.625 3.67893 18.9461 2 16.875 2H7.375ZM5.125 5.75C5.125 4.50736 6.13236 3.5 7.375 3.5H16.875C18.1176 3.5 19.125 4.50736 19.125 5.75V20.2772L17.5661 19.1434C17.2928 18.9447 16.9204 18.9532 16.6565 19.1643L14.625 20.7895L12.5935 19.1643C12.3196 18.9452 11.9304 18.9452 11.6565 19.1643L9.625 20.7895L7.59352 19.1643C7.32964 18.9532 6.95717 18.9447 6.68387 19.1434L5.125 20.2772V5.75ZM8.125 6C7.71079 6 7.375 6.33579 7.375 6.75C7.375 7.16421 7.71079 7.5 8.125 7.5H16.125C16.5392 7.5 16.875 7.16421 16.875 6.75C16.875 6.33579 16.5392 6 16.125 6H8.125ZM8.125 10C7.71079 10 7.375 10.3358 7.375 10.75C7.375 11.1642 7.71079 11.5 8.125 11.5H16.125C16.5392 11.5 16.875 11.1642 16.875 10.75C16.875 10.3358 16.5392 10 16.125 10H8.125ZM7.375 14.75C7.375 14.3358 7.71079 14 8.125 14H13.125C13.5392 14 13.875 14.3358 13.875 14.75C13.875 15.1642 13.5392 15.5 13.125 15.5H8.125C7.71079 15.5 7.375 15.1642 7.375 14.75Z" fill="currentColor" fill-opacity="0.8"/>
</svg>
