<svg width="25" height="24" viewBox="0 0 25 24" fill="none" xmlns="http://www.w3.org/2000/svg">
<path fill-rule="evenodd" clip-rule="evenodd" d="M6.375 3C4.99429 3 3.875 4.11929 3.875 5.5V8.5C3.875 9.88071 4.99429 11 6.375 11H9.375C10.7557 11 11.875 9.88071 11.875 8.5V5.5C11.875 4.11929 10.7557 3 9.375 3H6.375ZM9.375 4.5H6.375C5.82272 4.5 5.375 4.94772 5.375 5.5V8.5C5.375 9.05228 5.82272 9.5 6.375 9.5H9.375C9.92728 9.5 10.375 9.05228 10.375 8.5V5.5C10.375 4.94772 9.92728 4.5 9.375 4.5Z" fill="currentColor" fill-opacity="0.8"/>
<path fill-rule="evenodd" clip-rule="evenodd" d="M6.375 13C4.99429 13 3.875 14.1193 3.875 15.5V18.5C3.875 19.8807 4.99429 21 6.375 21H9.375C10.7557 21 11.875 19.8807 11.875 18.5V15.5C11.875 14.1193 10.7557 13 9.375 13H6.375ZM9.375 14.5H6.375C5.82272 14.5 5.375 14.9477 5.375 15.5V18.5C5.375 19.0523 5.82272 19.5 6.375 19.5H9.375C9.92728 19.5 10.375 19.0523 10.375 18.5V15.5C10.375 14.9477 9.92728 14.5 9.375 14.5Z" fill="currentColor" fill-opacity="0.8"/>
<path fill-rule="evenodd" clip-rule="evenodd" d="M13.875 5.5C13.875 4.11929 14.9943 3 16.375 3H19.375C20.7557 3 21.875 4.11929 21.875 5.5V8.5C21.875 9.88071 20.7557 11 19.375 11H16.375C14.9943 11 13.875 9.88071 13.875 8.5V5.5ZM16.375 4.5H19.375C19.9273 4.5 20.375 4.94772 20.375 5.5V8.5C20.375 9.05228 19.9273 9.5 19.375 9.5H16.375C15.8227 9.5 15.375 9.05228 15.375 8.5V5.5C15.375 4.94772 15.8227 4.5 16.375 4.5Z" fill="currentColor" fill-opacity="0.8"/>
<path d="M19.875 14.5H19.175C19.0093 14.5 18.875 14.3657 18.875 14.2V13.3C18.875 13.1343 19.0093 13 19.175 13H19.875C20.9796 13 21.875 13.8954 21.875 15V16.7C21.875 16.8657 21.7407 17 21.575 17H20.675C20.5093 17 20.375 16.8657 20.375 16.7V15C20.375 14.7239 20.1511 14.5 19.875 14.5Z" fill="currentColor" fill-opacity="0.8"/>
<path d="M20.375 18.3C20.375 18.1343 20.5093 18 20.675 18H21.575C21.7407 18 21.875 18.1343 21.875 18.3V19C21.875 20.1046 20.9796 21 19.875 21H18.175C18.0093 21 17.875 20.8657 17.875 20.7V19.8C17.875 19.6343 18.0093 19.5 18.175 19.5H19.875C20.1511 19.5 20.375 19.2761 20.375 19V18.3Z" fill="currentColor" fill-opacity="0.8"/>
<path d="M16.575 19.5C16.7407 19.5 16.875 19.6343 16.875 19.8V20.7C16.875 20.8657 16.7407 21 16.575 21H15.875C14.7704 21 13.875 20.1046 13.875 19V17.3C13.875 17.1343 14.0093 17 14.175 17H15.075C15.2407 17 15.375 17.1343 15.375 17.3V19C15.375 19.2761 15.5989 19.5 15.875 19.5H16.575Z" fill="currentColor" fill-opacity="0.8"/>
<path d="M13.875 15.7C13.875 15.8657 14.0093 16 14.175 16H15.075C15.2407 16 15.375 15.8657 15.375 15.7V15C15.375 14.7239 15.5989 14.5 15.875 14.5H17.575C17.7407 14.5 17.875 14.3657 17.875 14.2V13.3C17.875 13.1343 17.7407 13 17.575 13H15.875C14.7704 13 13.875 13.8954 13.875 15V15.7Z" fill="currentColor" fill-opacity="0.8"/>
<path d="M17.475 16C17.1436 16 16.875 16.2686 16.875 16.6V17.4C16.875 17.7314 17.1436 18 17.475 18H18.275C18.6064 18 18.875 17.7314 18.875 17.4V16.6C18.875 16.2686 18.6064 16 18.275 16H17.475Z" fill="currentColor" fill-opacity="0.8"/>
</svg>
