<svg width="72" height="72" viewBox="0 0 72 72" fill="none" xmlns="http://www.w3.org/2000/svg">
<circle cx="36.1429" cy="36.1429" r="32.1429" fill="#2F7BFF"/>
<path d="M24.2042 35.8627L25.0027 38.6806H21.4093V41.4985H25.8013L27.3983 47.134H32.6734L36.124 35.3287H36.2826L39.7333 47.134H45.0083L46.6053 41.4985H50.9973V38.6806H47.4039L48.2025 35.8625H52.4055V33.0446H49.001L50.9973 26H44.8497L42.0733 39.0437H41.9147L38.6227 26H33.7839L30.492 39.0024H30.3333L27.5569 26H21.4093L23.4057 33.0448H20V35.8627H24.2042Z" fill="white" fill-opacity="0.8"/>
<path d="M24.8456 35.6809L24.7082 35.196H24.2042H20.6667V33.7115H23.4057H24.2875L24.0471 32.8631L22.2911 26.6667H27.0176L29.6813 39.1416L29.794 39.6691H30.3333H30.492H31.0109L31.1382 39.166L34.3028 26.6667H38.1034L41.2683 39.2068L41.3954 39.7103H41.9147H42.0733H42.613L42.7254 39.1825L45.3894 26.6667H50.1155L48.3596 32.8629L48.1192 33.7113H49.001H51.7388V35.1959H48.2025H47.6985L47.5611 35.6808L46.7625 38.4988L46.522 39.3473H47.4039H50.3307V40.8318H46.6053H46.1013L45.9639 41.3167L44.5043 46.4674H40.233L36.9225 35.1417L36.7823 34.662H36.2826H36.124H35.6243L35.4841 35.1417L32.1737 46.4674H27.9023L26.4427 41.3167L26.3053 40.8318H25.8013H22.076V39.3473H25.0027H25.8846L25.6442 38.4988L24.8456 35.6809Z" stroke="white" stroke-opacity="0.8" stroke-width="1.33333"/>
<path d="M26.2042 37.8627L27.0027 40.6806H23.4093V43.4985H27.8013L29.3983 49.134H34.6734L38.124 37.3287H38.2826L41.7333 49.134H47.0083L48.6053 43.4985H52.9973V40.6806H49.4039L50.2025 37.8625H54.4055V35.0446H51.001L52.9973 28H46.8497L44.0733 41.0437H43.9147L40.6227 28H35.7839L32.492 41.0024H32.3333L29.5569 28H23.4093L25.4057 35.0448H22V37.8627H26.2042Z" fill="white" fill-opacity="0.4"/>
</svg>
